<?xml version="1.0" encoding="utf-8"?>
<!-- Generator: Adobe Illustrator 18.0.0, SVG Export Plug-In . SVG Version: 6.00 Build 0)  -->
<!DOCTYPE svg PUBLIC "-//W3C//DTD SVG 1.1//EN" "http://www.w3.org/Graphics/SVG/1.1/DTD/svg11.dtd">
<svg version="1.1" id="Layer_1" xmlns="http://www.w3.org/2000/svg" xmlns:xlink="http://www.w3.org/1999/xlink" x="0px" y="0px"
	 viewBox="0 0 200 24.9" enable-background="new 0 0 200 24.9" xml:space="preserve">
<g>
	<g>
		<path fill="#E12A2A" d="M20.7,12.5c0,2.6-0.8,4.9-2.1,6.9c-1.7,2.6-4.4,4.5-7.5,5.2c-0.8,0.2-1.6,0.3-2.4,0.3c-0.1,0-8.6,0-8.6,0
			c0-3,2.5-5.5,5.5-5.5h3c3.7-0.1,6.6-3.1,6.6-6.9c0,0,0,0,0,0c0-3.8-3.1-6.9-6.9-6.9c-1,0-1.9,0.2-2.8,0.6v6.3C5.5,15.5,3,18,0,18
			V3.2c1.5-1.4,3.4-2.4,5.5-2.8C6.4,0.1,7.3,0,8.3,0c4.3,0,8.1,2.2,10.3,5.5C19.9,7.5,20.7,9.9,20.7,12.5
			C20.7,12.5,20.7,12.5,20.7,12.5z"/>
	</g>
</g>
<g>
	<g>
		<path fill="#E12A2A" d="M31.5,0L19.1,24.9h8.2c3,0,5.5-2.5,5.5-5.5h-4.6l3.3-7l5,10.1c0.8,1.4,2.7,2.4,4.5,2.4h2.8L31.5,0z"/>
	</g>
</g>
<g>
	<g>
		<path fill="#E12A2A" d="M53,11.7L63.1,1.6c-2.2-2.2-5.6-2.2-7.8,0l-6,6V5.5c0-3-2.5-5.5-5.5-5.5v19.3c0,3,2.4,5.5,5.5,5.5v-9
			l7.4,7.4c2.1,2.2,5.6,2.2,7.8,0L53,11.7z"/>
	</g>
</g>
<g>
	<g>
		<path fill="#FFFFFF" d="M78.7,9.7h-4.8c-1.1,0-2.1-0.9-2.1-2.1c0-1.1,0.9-2.1,2.1-2.1h4.8c3,0,5.5-2.5,5.5-5.5H73.9
			c-4.2,0-7.6,3.4-7.6,7.6c0,4.2,3.4,7.6,7.6,7.6h4.8c1.1,0,2.1,0.9,2.1,2.1c0,1.1-0.9,2.1-2.1,2.1H66.3c0,3,2.5,5.5,5.5,5.5h6.9
			c4.2,0,7.6-3.4,7.6-7.6C86.3,13.1,82.9,9.7,78.7,9.7z"/>
	</g>
</g>
<g>
	<g>
		<path fill="#FFFFFF" d="M98.9,0H88.6c0,3,2.5,5.5,5.5,5.5h4.8c1.1,0,2.1,0.9,2.1,2.1c0,1.1-0.9,2.1-2.1,2.1H88.6v9.7
			c0,3,2.5,5.5,5.5,5.5v-9.7c0,0,4.8,0,4.9,0c4.1,0,7.5-3.5,7.5-7.6C106.5,3.5,103.1,0,98.9,0z"/>
	</g>
</g>
<path fill="#FFFFFF" d="M120.8,0c-6.9,0-12.4,5.6-12.4,12.4c0,6.9,5.5,12.4,12.4,12.4c6.9,0,12.4-5.6,12.4-12.4
	C133.2,5.6,127.7,0,120.8,0z M120.8,19c-3.6,0-6.5-2.9-6.5-6.5c0-3.6,2.9-6.5,6.5-6.5c3.6,0,6.5,2.9,6.5,6.5
	C127.4,16.1,124.4,19,120.8,19z"/>
<g>
	<g>
		<path fill="#FFFFFF" d="M148,15c3.1-0.9,5.5-3.9,5.5-7.3c0-4.2-3.4-7.6-7.6-7.6h-10.3c0,3,2.5,5.5,5.5,5.5h4.8
			c1.1,0,2.1,0.9,2.1,2.1c0,1.1-0.9,2.1-2.1,2.1h-10.3v9.7c0,3,2.5,5.5,5.5,5.5v-9l7.4,7.4c2.1,2.2,5.6,2.2,7.8,0L148,15z"/>
	</g>
</g>
<g>
	<g>
		<path fill="#FFFFFF" d="M161.9,0c-3,0-5.5,2.5-5.5,5.5h8.3v19.3c3,0,5.5-2.5,5.5-5.5V5.6h2.8c3,0,5.5-2.5,5.5-5.5H161.9z"/>
	</g>
</g>
<g>
	<g>
		<path fill="#FFFFFF" d="M192.4,9.7h-4.8c-1.1,0-2.1-0.9-2.1-2.1c0-1.1,0.9-2.1,2.1-2.1h4.8c3,0,5.5-2.5,5.5-5.5h-10.3
			c-4.2,0-7.6,3.4-7.6,7.6c0,4.2,3.4,7.6,7.6,7.6h4.8c1.1,0,2.1,0.9,2.1,2.1c0,1.1-0.9,2.1-2.1,2.1H180c0,3,2.5,5.5,5.5,5.5h6.9
			c4.2,0,7.6-3.4,7.6-7.6C200,13.1,196.6,9.7,192.4,9.7z"/>
	</g>
</g>
</svg>
