<?xml version="1.0" encoding="utf-8"?>
<!-- Generator: Adobe Illustrator 15.1.0, SVG Export Plug-In . SVG Version: 6.00 Build 0)  -->
<!DOCTYPE svg PUBLIC "-//W3C//DTD SVG 1.1//EN" "http://www.w3.org/Graphics/SVG/1.1/DTD/svg11.dtd">
<svg version="1.1" xmlns="http://www.w3.org/2000/svg" xmlns:xlink="http://www.w3.org/1999/xlink" x="0px" y="0px"
	 width="1062.086px" height="276.795px" viewBox="0 0 1062.086 276.795" enable-background="new 0 0 1062.086 276.795"
	 xml:space="preserve">
<g id="Background">
</g>
<g id="Objects">
	<path fill="#FFFFFF" d="M764.797,171.535c0.161,0.394,0.242,0.808,0.242,1.247s-0.171,0.91-0.512,1.411
		c-0.34,0.502-0.789,0.753-1.344,0.753c-1.146,0-1.72-1.146-1.72-3.44l0.028-7.04c0-1.629-0.135-4.021-0.404-7.174
		c-0.269-3.153-0.402-5.278-0.402-6.368c0-1.094,0.035-2.397,0.107-3.91c0.07-1.514,0.106-2.649,0.106-3.399
		c-0.161,0.482-0.779,3.018-1.854,7.604c-2.795,11.858-4.792,17.787-5.992,17.787c-0.717,0-1.275-0.214-1.679-0.645
		c-0.404-0.429-0.604-1.001-0.604-1.718c0-1.738-0.687-5.318-2.056-10.736c-1.371-5.419-2.531-9.571-3.48-12.455
		c-0.698,12.935-1.048,21.676-1.048,26.228l0.079,1.64c0,0.59-0.125,1.043-0.376,1.356c-0.25,0.312-0.645,0.471-1.181,0.471
		c-0.538,0-0.978-0.13-1.317-0.39c-0.341-0.261-0.511-0.571-0.511-0.929c0-3.743,0.281-9.353,0.847-16.82
		c0.565-7.472,0.846-13.079,0.846-16.823c-0.215-0.34-0.322-0.722-0.322-1.142c0-0.422,0.226-0.74,0.672-0.955
		c0.448-0.214,0.932-0.322,1.452-0.322c0.787,0,2.347,3.686,4.675,11.06c2.328,7.373,3.764,12.474,4.3,15.302
		c0.161-0.536,0.498-1.892,1.007-4.069c0.511-2.177,1.053-4.438,1.627-6.786c0.573-2.366,1.199-4.748,1.882-7.148
		c1.538-5.517,2.847-8.275,3.922-8.275c0.485,0,0.94,0.133,1.372,0.403c0.429,0.271,0.645,0.635,0.645,1.101
		c0,2.652,0.116,6.611,0.35,11.876c0.232,5.27,0.348,9.093,0.348,11.477l-0.134,5.806v0.026c0,0.41,0.108,1.719,0.322,3.922
		L764.797,171.535z M731.85,110.811c0.377,0.717,0.565,1.277,0.565,1.681c0,0.402-0.113,0.742-0.335,1.019
		c-0.225,0.279-0.525,0.418-0.9,0.418c-0.772,0-1.51-0.883-2.219-2.646c-0.708-1.765-1.275-3.722-1.706-5.872
		c-1.307-6.573-2.104-10.192-2.391-10.856h-0.673l-0.052,5.966c0,4.854,0.348,8.681,1.047,11.474l-0.618,1.479h-1.531l-0.727-0.807
		c0.037-1.648,0.054-3.497,0.054-5.55c0-2.051-0.156-6.435-0.471-13.154c-0.313-6.716-0.469-11.734-0.469-15.047
		c0-1.737,0.608-2.606,1.827-2.606c1.916,0,3.529,0.502,4.838,1.504c1.307,1.003,1.959,2.438,1.959,4.298v3.872
		c0,1.058-0.196,2.02-0.59,2.889c-0.394,0.868-0.852,1.783-1.369,2.74c-0.521,0.959-0.809,1.492-0.86,1.599
		c0.196,0.896,0.546,2.652,1.047,5.268C729.353,104.191,730.543,108.302,731.85,110.811z M726.518,88.332
		c0.527-1.889,0.792-3.337,0.792-4.338c0-1.006-0.028-1.743-0.08-2.221c-0.055-0.472-0.172-0.997-0.352-1.57
		c-0.358-1.183-1.181-1.8-2.471-1.855l-0.188,0.781c0,1.503,0.034,3.676,0.106,6.517c0.07,2.838,0.108,4.902,0.108,6.194
		C725.293,91.393,725.988,90.223,726.518,88.332z M717.689,113.498c-0.772,0-1.373-0.126-1.802-0.377s-0.645-0.735-0.645-1.451
		c0-1.559-0.268-3.824-0.807-6.797l-5.428-0.808c-0.341,1.219-0.601,2.554-0.779,4.005c-0.18,1.451-0.35,2.51-0.511,3.169
		c-0.322,1.363-0.923,2.044-1.8,2.044c-0.432,0-0.829-0.139-1.195-0.418c-0.368-0.276-0.551-0.63-0.551-1.059l0.134-0.485
		c2.473-9.548,4.309-18.848,5.509-27.895c0.035-0.249,0.089-0.984,0.161-2.202c0.179-2.688,0.519-4.398,1.021-5.134h1.855
		c0.5,0,0.939,0.117,1.315,0.351c0.376,0.234,0.564,0.582,0.564,1.048c0,2.795,0.371,6.943,1.115,12.442
		c0.743,5.499,1.116,9.457,1.116,11.878l0.59,3.386c0,0.448,0.176,1.541,0.525,3.276c0.348,1.74,0.522,2.876,0.522,3.412v0.057
		C718.602,112.747,718.297,113.265,717.689,113.498z M714.088,102.91c-0.107-0.538-0.162-1.474-0.162-2.808
		c0-1.335-0.075-2.99-0.229-4.972c-0.15-1.979-0.372-4.281-0.657-6.905c-0.287-2.626-0.483-4.528-0.592-5.712
		c-1.666,9.229-2.74,15.729-3.224,19.511C709.851,102.435,711.473,102.731,714.088,102.91z M745.852,111.591
		c0-0.412-0.171-0.716-0.511-0.916c-0.341-0.196-0.726-0.294-1.155-0.294c-0.357,0.322-0.753,0.482-1.184,0.482
		c-1.288,0-2.346-0.392-3.168-1.182c-0.36-0.339-0.67-0.775-0.931-1.304c-0.258-0.527-0.51-1.223-0.751-2.081
		c-0.242-0.861-0.363-2.41-0.363-4.649l0.243-10.615v-0.27c-0.018-1.735,0.206-3.931,0.671-6.583
		c0.252-1.397,0.645-2.578,1.183-3.548c0.556-0.967,1.21-1.45,1.962-1.45h2.58c0.34-0.017,0.621-0.175,0.845-0.47
		c0.224-0.297,0.338-0.631,0.338-1.009c0-0.377-0.14-0.699-0.417-0.966c-0.277-0.27-0.704-0.403-1.277-0.403
		c-2.383,0-4.353,0.699-5.912,2.096c-1.146,1.004-2.043,2.812-2.688,5.428c-0.535,2.115-0.806,5.877-0.806,11.285v1.317l0.027,3.226
		c0,7.041,1.218,11.349,3.655,12.925c0.447,0.289,1.123,0.551,2.027,0.796c0.905,0.24,1.77,0.362,2.594,0.362
		C744.839,113.769,745.852,113.041,745.852,111.591z M730.749,134.987c-0.252-0.162-0.622-0.242-1.116-0.242
		c-0.493,0-0.837,0.107-1.034,0.322c-0.197,0.217-0.295,0.536-0.295,0.967l0.026,0.916v3.088c0,19.727-1.309,29.587-3.923,29.587
		c-2.329,0-3.493-1.344-3.493-4.032c0-1.305-0.13-3.25-0.39-5.828c-0.262-2.58-0.39-4.525-0.39-5.834v-14.966
		c0-0.755-0.172-1.466-0.511-2.137c-0.341-0.674-0.731-1.01-1.168-1.01c-0.442,0-0.829,0.387-1.17,1.157l0.241,7.875
		c0,5.731,0.021,10.115,0.068,13.152c0.044,3.037,0.218,5.729,0.522,8.074c0.197,1.523,0.753,3.057,1.667,4.595
		c0.878,1.505,2.23,2.25,4.058,2.232c4.73,0,7.094-8.142,7.094-24.428l-0.054-0.94l0.242-4.595l0.377-5.535
		c-0.019-0.735-0.099-1.324-0.242-1.774C731.15,135.347,730.982,135.131,730.749,134.987z M748.524,112.865
		c-0.367-0.276-0.55-0.63-0.55-1.059l0.135-0.485c2.472-9.548,4.308-18.848,5.508-27.895c0.035-0.249,0.089-0.984,0.161-2.202
		c0.18-2.688,0.521-4.398,1.021-5.134h1.854c0.502,0,0.94,0.117,1.316,0.351c0.377,0.234,0.563,0.582,0.563,1.048
		c0,2.795,0.372,6.943,1.115,12.442s1.116,9.457,1.116,11.878l0.592,3.386c0,0.448,0.174,1.541,0.523,3.276
		c0.35,1.74,0.523,2.876,0.523,3.412v0.057c0,0.807-0.304,1.324-0.912,1.558c-0.771,0-1.372-0.126-1.801-0.377
		c-0.432-0.251-0.646-0.735-0.646-1.451c0-1.559-0.269-3.824-0.806-6.797l-5.427-0.808c-0.342,1.219-0.601,2.554-0.78,4.005
		c-0.179,1.451-0.351,2.51-0.511,3.169c-0.322,1.363-0.922,2.044-1.801,2.044C749.291,113.283,748.893,113.145,748.524,112.865z
		 M753.026,102.024c0.626,0.41,2.249,0.707,4.864,0.886c-0.108-0.538-0.162-1.474-0.162-2.808c0-1.335-0.076-2.99-0.229-4.972
		c-0.153-1.979-0.371-4.281-0.657-6.905c-0.287-2.626-0.483-4.528-0.593-5.712C754.584,91.742,753.51,98.243,753.026,102.024z
		 M845.036,134.987c-0.249-0.162-0.622-0.242-1.114-0.242c-0.493,0-0.837,0.107-1.035,0.322c-0.197,0.217-0.296,0.536-0.296,0.967
		l0.028,0.916v3.088c0,19.727-1.309,29.587-3.924,29.587c-2.328,0-3.493-1.344-3.493-4.032c0-1.305-0.13-3.25-0.39-5.828
		c-0.26-2.58-0.39-4.525-0.39-5.834v-14.966c0-0.755-0.17-1.466-0.51-2.137c-0.343-0.674-0.731-1.01-1.171-1.01
		c-0.438,0-0.827,0.387-1.168,1.157l0.242,7.875c0,5.731,0.021,10.115,0.067,13.152c0.044,3.037,0.22,5.729,0.523,8.074
		c0.196,1.523,0.753,3.057,1.667,4.595c0.876,1.505,2.229,2.25,4.057,2.232c4.729,0,7.096-8.142,7.096-24.428l-0.055-0.94
		l0.241-4.595l0.377-5.535c-0.019-0.735-0.099-1.324-0.241-1.774C845.44,135.347,845.271,135.131,845.036,134.987z M854.094,113.338
		c0.482-0.253,0.725-0.653,0.725-1.209c0-0.898-0.698-1.344-2.095-1.344l-4.06,0.132c-0.07,0-0.106-1.027-0.106-3.09l0.242-9.968
		c0-1.38-0.054-2.769-0.161-4.166h1.396c0.573,0.072,1.105,0.105,1.6,0.105c0.492,0,0.899-0.146,1.223-0.441
		c0.322-0.297,0.483-0.64,0.483-1.033c0-1.006-0.888-1.506-2.66-1.506l-1.962,0.08c-0.107-0.536-0.161-0.823-0.161-0.861
		l0.242-7.897c0-0.789-0.027-1.579-0.081-2.366c1.076,0.126,2.464,0.476,4.166,1.049c1.074-0.396,1.611-0.967,1.611-1.723
		c0-0.716-0.85-1.303-2.552-1.759s-3.046-0.685-4.031-0.685c-1.542,0-2.312,1.298-2.312,3.896l0.295,4.649l-0.374,16.069
		l0.349,9.299v1.451c0.017,0.466,0.223,0.864,0.617,1.195c0.394,0.33,0.832,0.498,1.317,0.498h4.647
		C853.063,113.714,853.609,113.586,854.094,113.338z M870.619,136.008l-0.886,0.026l-7.472-0.509c-0.375,0-0.762,0.112-1.154,0.336
		c-0.395,0.225-0.591,0.507-0.591,0.846c0,1.038,1.485,1.584,4.461,1.64c0.069,0,0.143,0,0.213,0
		c0.036,1.737,0.274,6.512,0.713,14.321c0.439,7.813,0.73,11.951,0.873,12.417c-0.053,1.236-0.08,1.861-0.08,1.881l0.107,4.218
		l1.021,0.726c0.466,0,0.895-0.165,1.289-0.496c0.396-0.332,0.592-0.712,0.592-1.142c0-3.494-0.305-8.707-0.914-15.642
		c-0.609-6.932-0.913-12.137-0.913-15.612l0.107-0.564l2.526,0.378c0.465,0,0.886-0.139,1.263-0.418
		c0.376-0.277,0.564-0.642,0.564-1.088C872.34,136.447,871.766,136.008,870.619,136.008z M834.529,113.31h-3.977
		c-0.933,0-1.397-2.401-1.397-7.201l0.161-17.334c0-1.182-0.106-2.986-0.322-5.413c-0.215-2.428-0.322-3.973-0.322-4.636
		c0-0.661,0.205-1.18,0.618-1.547c0.412-0.365,0.85-0.549,1.316-0.549c3.78,0,6.853,2.213,9.217,6.636
		c1.361,2.527,2.043,5.196,2.043,8.008l-0.107,2.769v3.037c0,3.69-0.166,6.153-0.496,7.39c-0.332,1.236-0.678,2.268-1.035,3.091
		c-0.36,0.824-0.789,1.559-1.291,2.203C837.772,111.23,836.303,112.414,834.529,113.31z M832.999,109.199v1.315
		c3.188,0,5.104-3.226,5.751-9.674c0.143-1.485,0.214-2.92,0.214-4.299c0-11.073-2.132-16.859-6.396-17.36
		c-0.269,1.45-0.404,3.443-0.404,5.979c0,2.538,0.14,6.5,0.417,11.893C832.859,102.444,832.999,106.493,832.999,109.199z
		 M856.217,169.896l-2.285,0.077c-1.236,0-1.855-1.26-1.855-3.787l0.216-8.761v-1.103c0-0.749,0.109-1.377,0.322-1.881
		l-0.161-13.219l0.377-4.193c0-0.376-0.138-0.698-0.416-0.967c-0.277-0.271-0.605-0.404-0.982-0.404
		c-1.271,0-1.907,1.738-1.907,5.213c0,1.149,0.109,2.867,0.322,5.162v0.402c0,2.724-0.117,6.819-0.349,12.292
		c-0.233,5.474-0.351,9.573-0.351,12.296c0,0.446,0.152,0.859,0.458,1.236c0.304,0.374,0.729,0.564,1.275,0.564
		c0.547,0,1.116-0.173,1.708-0.513c1.936,0,3.573,0.216,4.917,0.645c0.43-0.052,0.815-0.209,1.156-0.47
		c0.34-0.258,0.509-0.586,0.509-0.98C859.171,170.432,858.187,169.896,856.217,169.896z M860.782,95.468
		c0.683,0.214,1.34,0.322,1.976,0.322c0.637,0,1.152-0.148,1.546-0.444c0.394-0.295,0.593-0.686,0.593-1.17
		c0-0.967-0.889-1.451-2.661-1.451l-1.021,0.028v-1.479l0.512-11.044v-0.645h0.645c1.183,0,2.141,0.179,2.875,0.536
		c1.863,0,2.795-0.517,2.795-1.555c0-0.97-1.04-1.605-3.117-1.91c-0.915-0.144-1.692-0.234-2.339-0.268
		c-0.627-0.035-1.214-0.055-1.76-0.055c-0.547,0-1.038,0.143-1.478,0.43c-0.439,0.286-0.659,0.69-0.659,1.21
		c0,2.311-0.072,4.8-0.215,7.469v1.344c-0.107,1.864-0.237,5.82-0.389,11.863c-0.152,6.048-0.381,10.71-0.687,13.987
		c0.734,0.556,1.39,0.835,1.962,0.835c0.95,0,1.423-0.807,1.423-2.421V95.468z M793.469,168.577l-1.586,0.055h-0.726l0.027-1.532
		v-1.64l-0.269-11.689l0.296-10.507c0-1.898-0.072-3.602-0.216-5.105h2.822c0.411,0,0.779-0.145,1.103-0.43
		c0.322-0.286,0.483-0.602,0.483-0.941c0-0.768-0.743-1.155-2.23-1.155h-6.557c-1.81,0-2.716,0.42-2.716,1.264
		c0,0.573,0.153,0.961,0.458,1.169c0.304,0.205,0.727,0.309,1.263,0.309l1.263-0.053h1.048c0.179,1.843,0.269,3.814,0.269,5.91
		l-0.295,12.255l0.377,11.688l-0.107,0.728h-1.559c-0.216,0.017-0.431,0.177-0.645,0.481c-0.217,0.307-0.324,0.629-0.324,0.967
		c0,0.824,0.654,1.237,1.962,1.237c0.161,0,0.386-0.017,0.673-0.052c0.465,0.071,1.531,0.106,3.196,0.106h2.42
		c0.483,0,0.909-0.166,1.276-0.496c0.366-0.334,0.551-0.73,0.551-1.198C795.727,169.035,794.973,168.577,793.469,168.577z
		 M828.269,170.458c-0.216-2.203-0.322-3.512-0.322-3.922v-0.026l0.136-5.806c0-2.384-0.117-6.207-0.352-11.477
		c-0.23-5.265-0.348-9.224-0.348-11.876c0-0.466-0.216-0.83-0.645-1.101c-0.431-0.271-0.888-0.403-1.372-0.403
		c-1.073,0-2.382,2.759-3.923,8.275c-0.68,2.4-1.309,4.782-1.881,7.148c-0.573,2.348-1.116,4.609-1.627,6.786
		c-0.509,2.178-0.845,3.533-1.008,4.069c-0.535-2.828-1.97-7.929-4.299-15.302c-2.328-7.374-3.888-11.06-4.675-11.06
		c-0.521,0-1.004,0.108-1.452,0.322c-0.448,0.215-0.672,0.533-0.672,0.955c0,0.42,0.107,0.802,0.322,1.142
		c0,3.744-0.281,9.352-0.847,16.823c-0.564,7.468-0.845,13.077-0.845,16.82c0,0.357,0.169,0.668,0.51,0.929
		c0.34,0.26,0.779,0.39,1.317,0.39c0.536,0,0.931-0.159,1.183-0.471c0.249-0.313,0.375-0.767,0.375-1.356l-0.082-1.64
		c0-4.552,0.352-13.293,1.049-26.228c0.95,2.884,2.11,7.036,3.48,12.455c1.37,5.418,2.057,8.998,2.057,10.736
		c0,0.717,0.2,1.289,0.603,1.718c0.404,0.431,0.965,0.645,1.681,0.645c1.2,0,3.197-5.929,5.994-17.787
		c1.073-4.587,1.691-7.122,1.853-7.604c0,0.75-0.036,1.886-0.107,3.399c-0.071,1.513-0.108,2.816-0.108,3.91
		c0,1.09,0.136,3.215,0.404,6.368c0.27,3.152,0.404,5.545,0.404,7.174l-0.028,7.04c0,2.294,0.573,3.44,1.72,3.44
		c0.557,0,1.004-0.251,1.344-0.753c0.341-0.501,0.511-0.972,0.511-1.411s-0.082-0.854-0.243-1.247L828.269,170.458z M785.408,79.236
		h1.048c0.179,1.846,0.268,3.814,0.268,5.912l-0.295,12.253l0.376,11.688l-0.106,0.729h-1.56c-0.215,0.017-0.429,0.177-0.645,0.481
		c-0.216,0.306-0.322,0.628-0.322,0.967c0,0.825,0.652,1.236,1.962,1.236c0.161,0,0.384-0.017,0.671-0.052
		c0.465,0.071,1.532,0.106,3.197,0.106h2.419c0.483,0,0.909-0.164,1.275-0.497c0.369-0.331,0.553-0.729,0.553-1.197
		c0-0.911-0.753-1.37-2.257-1.37l-1.586,0.055h-0.727l0.027-1.532v-1.637l-0.27-11.692l0.296-10.507c0-1.897-0.071-3.6-0.214-5.105
		h2.82c0.412,0,0.78-0.141,1.103-0.431c0.323-0.285,0.483-0.599,0.483-0.94c0-0.768-0.744-1.155-2.23-1.155h-6.557
		c-1.809,0-2.713,0.424-2.713,1.264c0,0.572,0.15,0.964,0.455,1.169c0.307,0.205,0.726,0.308,1.264,0.308L785.408,79.236z
		 M775.84,110.166c-0.52,0.608-1.128,0.914-1.826,0.914l-2.285-0.405l-0.618,0.943c0.143,1.2,0.97,1.906,2.474,2.122v-0.135
		c1.182-0.02,2.234-0.345,3.156-0.98c0.923-0.636,1.637-1.457,2.137-2.459c1.039-2.024,1.55-4.148,1.532-6.368
		c0.018-2.886-0.549-5.447-1.693-7.686c-0.5-0.97-1.036-1.968-1.6-2.995c-0.563-1.032-1.092-1.973-1.585-2.824
		c-0.493-0.85-0.899-1.821-1.223-2.914c-0.322-1.095-0.483-2.011-0.483-2.755c0-0.745,0.045-1.395,0.135-1.948
		c0.412-2.544,1.199-3.844,2.363-3.896c0.377,0.215,0.762,0.319,1.157,0.319c0.896,0,1.343-0.419,1.343-1.263
		c0-0.481-0.291-0.931-0.873-1.344c-0.583-0.41-1.195-0.618-1.841-0.618c-1.72,0-3.1,1.185-4.139,3.55
		c-0.557,1.272-0.834,2.73-0.834,4.381c0,2.685,0.771,5.427,2.313,8.223c0.645,1.181,1.294,2.341,1.946,3.479
		c0.655,1.137,1.206,2.367,1.654,3.695c0.448,1.324,0.672,2.664,0.672,4.016c0,1.355-0.241,2.906-0.725,4.663
		C776.744,108.796,776.36,109.557,775.84,110.166z M781.578,167.555c0.349,1.738,0.522,2.877,0.522,3.414v0.055
		c0,0.805-0.304,1.325-0.912,1.559c-0.77,0-1.371-0.126-1.801-0.377c-0.429-0.25-0.645-0.735-0.645-1.451
		c0-1.56-0.268-3.824-0.806-6.799l-5.429-0.807c-0.341,1.218-0.601,2.555-0.78,4.006c-0.179,1.449-0.35,2.507-0.509,3.17
		c-0.324,1.36-0.924,2.041-1.802,2.041c-0.431,0-0.828-0.137-1.195-0.416c-0.367-0.276-0.551-0.63-0.551-1.059l0.136-0.485
		c2.471-9.548,4.308-18.848,5.508-27.894c0.035-0.251,0.088-0.985,0.161-2.203c0.178-2.688,0.519-4.399,1.021-5.135h1.854
		c0.501,0,0.94,0.116,1.314,0.352c0.378,0.231,0.565,0.582,0.565,1.048c0,2.795,0.373,6.941,1.116,12.44
		c0.742,5.502,1.115,9.46,1.115,11.878l0.591,3.386C781.055,164.728,781.23,165.82,781.578,167.555z M777.588,161.993
		c-0.107-0.536-0.162-1.475-0.162-2.807c0-1.337-0.076-2.992-0.229-4.974c-0.151-1.977-0.372-4.28-0.658-6.904
		c-0.286-2.625-0.483-4.529-0.591-5.711c-1.666,9.225-2.74,15.729-3.224,19.508C773.351,161.52,774.973,161.815,777.588,161.993z
		 M804.004,112.665c0.035-1.648,0.053-3.497,0.053-5.55c0-2.051-0.157-6.435-0.47-13.154c-0.313-6.716-0.471-11.734-0.471-15.047
		c0-1.737,0.609-2.606,1.828-2.606c1.915,0,3.528,0.502,4.837,1.504c1.307,1.003,1.96,2.438,1.96,4.298v3.872
		c0,1.058-0.196,2.02-0.591,2.889c-0.394,0.868-0.85,1.783-1.369,2.74c-0.521,0.959-0.808,1.492-0.86,1.599
		c0.196,0.896,0.546,2.652,1.047,5.268c1.076,5.715,2.267,9.825,3.575,12.334c0.375,0.717,0.564,1.277,0.564,1.681
		c0,0.402-0.112,0.742-0.336,1.019c-0.225,0.279-0.525,0.418-0.9,0.418c-0.772,0-1.509-0.883-2.217-2.646
		c-0.71-1.765-1.276-3.722-1.706-5.872c-1.309-6.573-2.106-10.192-2.393-10.856h-0.672l-0.054,5.966
		c0,4.854,0.349,8.681,1.048,11.474l-0.618,1.479h-1.531L804.004,112.665z M805.911,79.129c0,1.503,0.035,3.676,0.107,6.517
		c0.07,2.838,0.108,4.902,0.108,6.194c0.858-0.447,1.554-1.617,2.082-3.508c0.527-1.889,0.792-3.337,0.792-4.338
		c0-1.006-0.027-1.743-0.08-2.221c-0.055-0.472-0.172-0.997-0.352-1.57c-0.357-1.183-1.18-1.8-2.471-1.855L805.911,79.129z
		 M817.25,110.569v1.451c0.018,0.466,0.225,0.864,0.618,1.195c0.396,0.33,0.834,0.498,1.317,0.498h4.649
		c0.608,0,1.155-0.128,1.639-0.376c0.483-0.253,0.727-0.653,0.727-1.209c0-0.898-0.699-1.344-2.098-1.344l-4.057,0.132
		c-0.072,0-0.107-1.027-0.107-3.09l0.243-9.968c0-1.38-0.055-2.769-0.161-4.166h1.396c0.574,0.072,1.106,0.105,1.6,0.105
		c0.492,0,0.9-0.146,1.223-0.441c0.322-0.297,0.483-0.64,0.483-1.033c0-1.006-0.887-1.506-2.66-1.506l-1.962,0.08
		c-0.108-0.536-0.161-0.823-0.161-0.861l0.243-7.897c0-0.789-0.029-1.579-0.082-2.366c1.074,0.126,2.462,0.476,4.164,1.049
		c1.076-0.396,1.614-0.967,1.614-1.723c0-0.716-0.853-1.303-2.555-1.759c-1.701-0.456-3.046-0.685-4.029-0.685
		c-1.543,0-2.312,1.298-2.312,3.896l0.296,4.649l-0.377,16.069L817.25,110.569z M657.066,80.443l-0.322,10.267l0.106,18.864
		c0,2.241,0.599,3.358,1.8,3.358c0.448,0,0.838-0.17,1.169-0.511c0.332-0.339,0.498-0.681,0.498-1.02
		c0-0.341-0.117-0.708-0.351-1.103c-0.106-0.179-0.18-0.305-0.215-0.375V82.218c1.183,2.742,3.09,7.757,5.726,15.05
		c2.633,7.292,3.948,11.616,3.948,12.977l-0.026,0.244c0.089,0.18,0.198,0.537,0.323,1.073c0.125,0.541,0.291,0.938,0.496,1.197
		s0.502,0.391,0.887,0.391c0.386,0,1.078-0.153,2.083-0.458c0.591-0.931,1.062-5.003,1.412-12.214
		c0.349-7.211,0.54-12.973,0.577-17.291v-4.166c0-0.574-0.132-1.075-0.39-1.506c-0.261-0.429-0.65-0.645-1.17-0.645
		c-0.913,0-1.369,0.547-1.369,1.64l0.08,1.478c0,10.929-0.368,20.237-1.102,27.921c-0.252-0.628-0.892-2.744-1.922-6.354
		c-1.03-3.611-2.065-7.189-3.104-10.735c-1.04-3.548-2.202-6.804-3.493-9.768c-1.29-2.966-2.364-4.447-3.225-4.447
		c-0.125,0-0.26,0.043-0.403,0.134v-0.349C657.736,77.392,657.066,78.744,657.066,80.443z M663.729,169.868l-4.056,0.134
		c-0.072,0-0.109-1.031-0.109-3.092l0.242-9.968c0-1.379-0.054-2.768-0.161-4.167h1.397c0.572,0.071,1.106,0.107,1.599,0.107
		c0.494,0,0.9-0.146,1.223-0.441c0.324-0.296,0.485-0.64,0.485-1.035c0-1.004-0.89-1.505-2.662-1.505l-1.962,0.081
		c-0.106-0.536-0.161-0.823-0.161-0.861l0.242-7.898c0-0.788-0.026-1.578-0.081-2.365c1.076,0.123,2.464,0.475,4.166,1.047
		c1.076-0.394,1.612-0.967,1.612-1.72c0-0.716-0.851-1.304-2.553-1.76c-1.702-0.459-3.046-0.685-4.031-0.685
		c-1.541,0-2.31,1.298-2.31,3.896l0.293,4.649l-0.374,16.068l0.349,9.297v1.454c0.018,0.466,0.225,0.864,0.618,1.193
		c0.394,0.332,0.833,0.499,1.316,0.499h4.647c0.611,0,1.157-0.126,1.641-0.377s0.726-0.653,0.726-1.207
		C665.825,170.314,665.125,169.868,663.729,169.868z M699.952,110.785l-4.057,0.132c-0.07,0-0.108-1.027-0.108-3.09l0.243-9.968
		c0-1.38-0.055-2.769-0.161-4.166h1.396c0.573,0.072,1.106,0.105,1.6,0.105c0.491,0,0.899-0.146,1.222-0.441
		c0.322-0.297,0.483-0.64,0.483-1.033c0-1.006-0.886-1.506-2.66-1.506l-1.96,0.08c-0.106-0.536-0.163-0.823-0.163-0.861l0.243-7.897
		c0-0.789-0.028-1.579-0.08-2.366c1.073,0.126,2.462,0.476,4.165,1.049c1.074-0.396,1.611-0.967,1.611-1.723
		c0-0.716-0.85-1.303-2.553-1.759c-1.702-0.456-3.046-0.685-4.031-0.685c-1.539,0-2.312,1.298-2.312,3.896l0.297,4.649
		l-0.377,16.069l0.351,9.299v1.451c0.019,0.466,0.224,0.864,0.618,1.195c0.393,0.33,0.832,0.498,1.315,0.498h4.649
		c0.607,0,1.156-0.128,1.64-0.376c0.483-0.253,0.725-0.653,0.725-1.209C702.049,111.23,701.351,110.785,699.952,110.785z
		 M689.313,110.675c-0.341-0.196-0.727-0.294-1.156-0.294c-0.359,0.322-0.751,0.482-1.183,0.482c-1.289,0-2.347-0.392-3.171-1.182
		c-0.358-0.339-0.668-0.775-0.928-1.304c-0.259-0.527-0.509-1.223-0.751-2.081c-0.243-0.861-0.364-2.41-0.364-4.649l0.242-10.615
		v-0.27c-0.017-1.735,0.207-3.931,0.673-6.583c0.251-1.397,0.645-2.578,1.182-3.548c0.555-0.967,1.21-1.45,1.962-1.45h2.581
		c0.339-0.017,0.622-0.175,0.846-0.47c0.224-0.297,0.335-0.631,0.335-1.009c0-0.377-0.138-0.699-0.416-0.966
		c-0.277-0.27-0.704-0.403-1.275-0.403c-2.384,0-4.354,0.699-5.913,2.096c-1.147,1.004-2.042,2.812-2.687,5.428
		c-0.538,2.115-0.806,5.877-0.806,11.285v1.317l0.025,3.226c0,7.041,1.219,11.349,3.655,12.925c0.447,0.289,1.124,0.551,2.028,0.796
		c0.904,0.24,1.771,0.362,2.593,0.362c2.024,0,3.037-0.728,3.037-2.178C689.822,111.179,689.653,110.875,689.313,110.675z
		 M685.414,135.954c-0.912,0-1.369,0.548-1.369,1.638l0.08,1.48c0,10.928-0.366,20.234-1.102,27.92
		c-0.252-0.628-0.892-2.746-1.921-6.354c-1.031-3.61-2.065-7.189-3.105-10.736c-1.039-3.547-2.202-6.803-3.493-9.767
		c-1.29-2.965-2.364-4.449-3.225-4.449c-0.125,0-0.259,0.044-0.401,0.133v-0.349c-1.345,1.006-2.016,2.355-2.016,4.059
		l-0.322,10.267l0.106,18.863c0,2.238,0.601,3.358,1.801,3.358c0.447,0,0.837-0.17,1.17-0.511c0.33-0.339,0.496-0.681,0.496-1.02
		c0-0.342-0.117-0.708-0.348-1.104c-0.109-0.178-0.183-0.305-0.218-0.377v-27.704c1.183,2.743,3.092,7.757,5.726,15.05
		c2.633,7.292,3.95,11.616,3.95,12.977l-0.027,0.245c0.09,0.178,0.197,0.536,0.322,1.073s0.291,0.936,0.498,1.196
		c0.205,0.26,0.5,0.389,0.887,0.389c0.384,0,1.079-0.15,2.082-0.456c0.59-0.931,1.061-5.003,1.411-12.215
		c0.349-7.21,0.541-12.972,0.577-17.29v-4.165c0-0.575-0.13-1.076-0.389-1.507C686.324,136.169,685.934,135.954,685.414,135.954z
		 M699.765,136.008l-0.886,0.026l-7.472-0.509c-0.376,0-0.762,0.112-1.154,0.336c-0.395,0.225-0.592,0.507-0.592,0.846
		c0,1.038,1.486,1.584,4.46,1.64c0.072,0,0.144,0,0.215,0c0.036,1.737,0.272,6.512,0.712,14.321
		c0.439,7.813,0.73,11.951,0.875,12.417c-0.057,1.236-0.082,1.861-0.082,1.881l0.107,4.218l1.022,0.726
		c0.466,0,0.895-0.165,1.289-0.496c0.393-0.332,0.592-0.712,0.592-1.142c0-3.494-0.306-8.707-0.914-15.642
		c-0.609-6.932-0.914-12.137-0.914-15.612l0.108-0.564l2.525,0.378c0.466,0,0.888-0.139,1.264-0.418
		c0.376-0.277,0.564-0.642,0.564-1.088C701.485,136.447,700.911,136.008,699.765,136.008z M651.879,138.643
		c0.751,1.559,1.128,3.349,1.128,5.373c0,2.563-0.063,4.134-0.188,4.716c-0.126,0.584-0.26,1.135-0.403,1.651
		c-0.144,0.521-0.318,0.941-0.524,1.266c-0.206,0.322-0.47,0.676-0.792,1.061c-0.322,0.386-0.69,0.714-1.103,0.981
		c-0.914,0.591-2.015,1.093-3.306,1.506v5.884l0.429,10.426c0,0.449-0.187,0.828-0.563,1.143c-0.375,0.313-0.807,0.471-1.29,0.471
		l-1.154-0.671c-0.449-2.024-0.673-4.721-0.673-8.089l0.216-9.808c-0.216-0.484-0.322-0.933-0.322-1.344v-0.189
		c0.357-0.716,0.537-2.294,0.537-4.73l0.079-5.239c0-2.24-0.144-3.94-0.429-5.106c0.249-1.289,0.743-1.935,1.479-1.935h2.417
		C649.531,136.008,651.019,136.886,651.879,138.643z M649.997,143.614c0-1.739-0.214-2.922-0.645-3.547
		c-0.466-0.663-1.182-0.995-2.15-0.995c0-0.055-0.196-0.081-0.591-0.081v3.117l0.107,10.722v0.079
		C648.904,152.625,649.997,149.524,649.997,143.614z M651.854,109.493l-1.587,0.055h-0.727l0.028-1.532v-1.637l-0.27-11.692
		l0.296-10.507c0-1.897-0.073-3.6-0.216-5.105h2.822c0.411,0,0.779-0.141,1.102-0.431c0.322-0.285,0.483-0.599,0.483-0.94
		c0-0.768-0.744-1.155-2.229-1.155H645c-1.812,0-2.715,0.424-2.715,1.264c0,0.572,0.152,0.964,0.456,1.169
		c0.306,0.205,0.726,0.308,1.264,0.308l1.263-0.052h1.047c0.18,1.846,0.271,3.814,0.271,5.912l-0.296,12.253l0.377,11.688
		l-0.108,0.729H645c-0.216,0.017-0.432,0.177-0.646,0.481c-0.215,0.306-0.322,0.628-0.322,0.967c0,0.825,0.653,1.236,1.962,1.236
		c0.16,0,0.383-0.017,0.672-0.052c0.465,0.071,1.53,0.106,3.196,0.106h2.42c0.483,0,0.909-0.164,1.275-0.497
		c0.368-0.331,0.551-0.729,0.551-1.197C654.108,109.952,653.356,109.493,651.854,109.493z M714.41,169.896
		c0.376,0.716,0.565,1.275,0.565,1.68c0,0.4-0.113,0.742-0.338,1.019c-0.224,0.279-0.523,0.419-0.899,0.419
		c-0.771,0-1.51-0.884-2.217-2.648c-0.709-1.764-1.275-3.721-1.706-5.871c-1.308-6.573-2.106-10.195-2.392-10.856h-0.672
		l-0.054,5.966c0,4.854,0.349,8.679,1.048,11.474l-0.619,1.478h-1.531l-0.725-0.805c0.035-1.648,0.054-3.496,0.054-5.55
		c0-2.05-0.157-6.435-0.471-13.153c-0.313-6.72-0.472-11.735-0.472-15.05c0-1.736,0.611-2.606,1.83-2.606
		c1.915,0,3.529,0.503,4.835,1.506c1.309,1.002,1.962,2.437,1.962,4.298v3.873c0,1.055-0.196,2.019-0.591,2.887
		c-0.396,0.869-0.85,1.781-1.371,2.74c-0.519,0.961-0.806,1.492-0.859,1.6c0.198,0.896,0.546,2.652,1.048,5.266
		C711.912,163.275,713.102,167.386,714.41,169.896z M709.076,147.414c0.528-1.888,0.793-3.337,0.793-4.339
		c0-1.003-0.027-1.74-0.081-2.218c-0.054-0.475-0.171-0.998-0.351-1.57c-0.357-1.182-1.18-1.801-2.472-1.855l-0.187,0.778
		c0,1.506,0.035,3.679,0.106,6.52c0.071,2.838,0.106,4.902,0.106,6.194C707.854,150.474,708.546,149.305,709.076,147.414z
		 M879.46,112.558c0.483,0,0.91-0.164,1.276-0.497c0.366-0.331,0.551-0.729,0.551-1.197c0-0.911-0.751-1.37-2.257-1.37l-1.584,0.055
		h-0.727l0.026-1.532v-1.637l-0.27-11.692l0.297-10.507c0-1.897-0.072-3.6-0.215-5.105h2.821c0.412,0,0.779-0.141,1.102-0.431
		c0.322-0.285,0.483-0.599,0.483-0.94c0-0.768-0.743-1.155-2.229-1.155h-6.557c-1.811,0-2.716,0.424-2.716,1.264
		c0,0.572,0.153,0.964,0.457,1.169c0.305,0.205,0.727,0.308,1.265,0.308l1.263-0.052h1.049c0.178,1.846,0.268,3.814,0.268,5.912
		l-0.296,12.253l0.377,11.688l-0.108,0.729h-1.558c-0.216,0.017-0.432,0.177-0.645,0.481c-0.216,0.306-0.322,0.628-0.322,0.967
		c0,0.825,0.652,1.236,1.962,1.236c0.161,0,0.383-0.017,0.671-0.052c0.465,0.071,1.531,0.106,3.197,0.106H879.46z M1024.651,110.811
		c0.377,0.717,0.563,1.277,0.563,1.681c0,0.402-0.111,0.742-0.335,1.019c-0.224,0.279-0.524,0.418-0.9,0.418
		c-0.771,0-1.509-0.883-2.216-2.646c-0.709-1.765-1.278-3.722-1.707-5.872c-1.308-6.573-2.105-10.192-2.391-10.856h-0.674
		l-0.053,5.966c0,4.854,0.35,8.681,1.049,11.474l-0.619,1.479h-1.53l-0.727-0.807c0.035-1.648,0.054-3.497,0.054-5.55
		c0-2.051-0.158-6.435-0.471-13.154c-0.313-6.716-0.471-11.734-0.471-15.047c0-1.737,0.609-2.606,1.827-2.606
		c1.918,0,3.529,0.502,4.838,1.504c1.309,1.003,1.961,2.438,1.961,4.298v3.872c0,1.058-0.198,2.02-0.59,2.889
		c-0.396,0.868-0.853,1.783-1.371,2.74c-0.521,0.959-0.808,1.492-0.859,1.599c0.195,0.896,0.546,2.652,1.048,5.268
		C1022.152,104.191,1023.344,108.302,1024.651,110.811z M1019.318,88.332c0.527-1.889,0.793-3.337,0.793-4.338
		c0-1.006-0.029-1.743-0.081-2.221c-0.055-0.472-0.171-0.997-0.35-1.57c-0.359-1.183-1.184-1.8-2.473-1.855l-0.187,0.781
		c0,1.503,0.033,3.676,0.106,6.517c0.07,2.838,0.107,4.902,0.107,6.194C1018.095,91.393,1018.788,90.223,1019.318,88.332z
		 M58.423,117.549c-0.153-2-0.375-4.326-0.666-6.979c-0.288-2.652-0.488-4.576-0.596-5.771c-1.684,9.323-2.771,15.895-3.259,19.715
		c0.633,0.417,2.271,0.715,4.916,0.896c-0.109-0.542-0.164-1.488-0.164-2.837S58.578,119.55,58.423,117.549z M1047.171,110.811
		l-2.284,0.081c-1.235,0-1.854-1.262-1.854-3.79l0.215-8.76v-1.101c0-0.752,0.106-1.38,0.322-1.883l-0.161-13.219l0.376-4.194
		c0-0.375-0.139-0.697-0.417-0.967c-0.278-0.271-0.604-0.403-0.979-0.403c-1.273,0-1.909,1.737-1.909,5.212
		c0,1.148,0.107,2.868,0.323,5.161v0.403c0,2.724-0.117,6.82-0.351,12.294c-0.231,5.473-0.349,9.571-0.349,12.295
		c0,0.445,0.151,0.858,0.458,1.235c0.304,0.377,0.729,0.564,1.275,0.564s1.115-0.172,1.705-0.511c1.937,0,3.576,0.214,4.92,0.645
		c0.429-0.054,0.814-0.211,1.155-0.468c0.339-0.262,0.511-0.588,0.511-0.984C1050.128,111.348,1049.142,110.811,1047.171,110.811z
		 M1035.213,110.785l-4.059,0.132c-0.071,0-0.107-1.027-0.107-3.09l0.242-9.968c0-1.38-0.053-2.769-0.161-4.166h1.397
		c0.573,0.072,1.106,0.105,1.599,0.105c0.494,0,0.901-0.146,1.224-0.441c0.322-0.297,0.483-0.64,0.483-1.033
		c0-1.006-0.888-1.506-2.661-1.506l-1.962,0.08c-0.106-0.536-0.161-0.823-0.161-0.861l0.242-7.897c0-0.789-0.026-1.579-0.081-2.366
		c1.076,0.126,2.464,0.476,4.166,1.049c1.076-0.396,1.611-0.967,1.611-1.723c0-0.716-0.85-1.303-2.552-1.759
		c-1.703-0.456-3.046-0.685-4.031-0.685c-1.541,0-2.311,1.298-2.311,3.896l0.295,4.649l-0.375,16.069l0.35,9.299v1.451
		c0.017,0.466,0.222,0.864,0.617,1.195c0.395,0.33,0.831,0.498,1.317,0.498h4.647c0.61,0,1.155-0.128,1.639-0.376
		c0.485-0.253,0.729-0.653,0.729-1.209C1037.311,111.23,1036.611,110.785,1035.213,110.785z M1059.988,110.785l-4.058,0.132
		c-0.07,0-0.106-1.027-0.106-3.09l0.241-9.968c0-1.38-0.053-2.769-0.161-4.166h1.398c0.572,0.072,1.105,0.105,1.599,0.105
		c0.492,0,0.9-0.146,1.223-0.441c0.322-0.297,0.483-0.64,0.483-1.033c0-1.006-0.888-1.506-2.66-1.506l-1.962,0.08
		c-0.108-0.536-0.161-0.823-0.161-0.861l0.241-7.897c0-0.789-0.027-1.579-0.08-2.366c1.076,0.126,2.464,0.476,4.164,1.049
		c1.075-0.396,1.614-0.967,1.614-1.723c0-0.716-0.853-1.303-2.554-1.759c-1.702-0.456-3.046-0.685-4.03-0.685
		c-1.541,0-2.313,1.298-2.313,3.896l0.297,4.649l-0.376,16.069l0.35,9.299v1.451c0.019,0.466,0.224,0.864,0.619,1.195
		c0.394,0.33,0.832,0.498,1.315,0.498h4.648c0.609,0,1.156-0.128,1.64-0.376c0.483-0.253,0.727-0.653,0.727-1.209
		C1062.086,111.23,1061.386,110.785,1059.988,110.785z M70.711,61.935c-0.155-1.999-0.375-4.327-0.666-6.979
		c-0.29-2.652-0.488-4.575-0.598-5.77c-1.684,9.322-2.771,15.895-3.259,19.713c0.634,0.417,2.271,0.716,4.916,0.896
		c-0.109-0.543-0.163-1.488-0.163-2.838C70.942,65.611,70.865,63.935,70.711,61.935z M541.311,79.896c7.042,0,14.082,0,21.123,0
		c1.989-2.264,3.852-4.889,5.352-7.899C561.608,73.502,552.279,76.284,541.311,79.896z M571.921,122.758
		c0.829,2.489,0.058,5.225-1.341,6.971c-0.873,2.486-4.244,5.345-11.65,5.292c-8.203-0.058-14.603-8.159-17.563-16.299
		c0.574,3.451,0.98,6.962,1.207,10.519c2.275,35.508-23.667,60.164-42.749,85.92c-7.42,10.017-13.827,14.426-9.682,19.928
		c3.424,4.549,29.255-1.925,38.877-0.451c2.079-0.65,4.683-0.524,6.743,0.838c2.086,1.378,2.109,2.837-0.637,2.437
		c-0.661-0.098-1.381,0.215-2.125,0.703c0.573,7.156-12.157,8.242-11.119,10.841c1.457,3.643,10.668,1.645,14.462,4.771
		c2,0.395,4.076,1.639,5.173,3.663c1.124,2.07,0.496,3.294-1.61,1.745c-0.555-0.409-1.384-0.444-2.316-0.334
		c-2.707,4.219-19.158-1.046-20.292,0.928c-1.177,2.052,3.237,5.312,5.145,8.267c1.632,1.391,2.877,3.713,2.699,6.171
		c-0.17,2.35-1.36,3.043-2.297,0.604c-0.295-0.765-1.198-1.293-2.264-1.753c-0.077,0.029-0.142,0.06-0.222,0.088
		c-11.177,3.974-32.911-15.824-40.094-22.69c-4.621-4.422-7.904-8.297-8.671-13.868c-0.36-2.617,0.357-5.67,1.638-9.022
		c1.439-3.775,3.555-8.343,6.94-13.848c1.262-2.054,2.867-3.738,3.716-5.678c5.406-12.304,4.998-26.914-16.734-26.8
		c-29.398,0.156-25.851,18.959-19.29,32.591c2.049,4.262,4.002,7.752,5.259,10.971c1.659,4.252,2.54,8.669,1.758,12.199
		c-1.151,5.2-3.597,9.409-7.828,13.455c-7.183,6.867-28.913,26.664-40.093,22.69c-0.183-0.064-0.343-0.134-0.507-0.202
		c-0.344,0.266-0.607,0.564-0.741,0.913c-0.937,2.438-2.128,1.746-2.297-0.603c-0.089-1.245,0.188-2.456,0.693-3.527
		c0.733-3.322,7.321-7.504,5.914-9.957c-1.207-2.1-19.758,3.997-20.637-1.856c-0.277,0.06-0.526,0.157-0.734,0.311
		c-2.104,1.549-2.731,0.323-1.61-1.747c1.22-2.248,3.647-3.538,5.837-3.763c4.348-1.622,11.313-0.59,12.563-3.717
		c1.08-2.7-12.713-3.767-10.985-11.714c-0.368-0.138-0.727-0.203-1.068-0.153c-2.687,0.394-2.664-1.037-0.621-2.389
		c2.136-1.412,4.873-1.467,6.964-0.696c10.957-0.83,36.303,4.986,39.441,0.504c2.261-3.229-7.521-16.199-9.008-18.415
		c-1.651-2.458-3.51-5.253-5.716-8.318c-18.075-25.096-37.947-40.487-38.639-79.033c-0.199-11.1,1.439-21.178,4.662-30.132
		c-8.696,2.581-17.942,4.492-26.357,4.242c4.165,5.442,8.154,11.304,11.919,17.626c-5.522-6.643-11.251-12.611-17.127-17.974
		c-15.364-1.611-26.403-8.506-34.204-23.972c-35.187-18.23-71.816-19.881-99.952-13.876c4.435,7.958,6.86,16.534,6.86,25.467
		c0,41.416-52.021,75.196-115.804,75.196C52.021,165.818,0,132.038,0,90.622c0-41.418,52.021-75.197,115.805-75.197
		c38.379,0,72.494,12.234,93.586,31c21.504-6.451,53-6.994,84.784,4.691c-1.396-4.257-2.291-8.443-3.08-11.794
		c-0.989-4.207-1.264-7.392-1.071-9.624c-1.04-2.082-0.584-5.642,1.748-7.633c1.621-1.387,2.825-1.062,1.851,1.094
		c-0.393,0.868,0.103,2.135,0.66,3.415c1.276,1.161,2.598,3.423,3.594,6.698c3.433,11.279,8.357,8.967,7.986-10.789
		c-0.127-6.733,0.69-11.382,1.908-14.122c-0.624-2.441,0.519-6.042,3.315-7.734c2.002-1.212,3.247-0.646,1.809,1.517
		c-0.685,1.029-0.126,2.888,0.316,4.634c1.696,2.257,2.95,7.135,2.713,14.308c-0.466,14.101,6.823,22.52,8.14,4.333
		c0.313-4.346,1.077-7.498,2.042-9.55c-0.115-2.327,1.066-5.199,3.471-6.655c2.004-1.211,3.25-0.645,1.809,1.518
		c-0.574,0.862-0.273,2.309,0.1,3.784c1.508,2.217,2.565,6.774,2.296,13.456c-0.734,18.256,0.138,29.329,7.325,14.669
		c0.845-1.723,1.771-2.764,2.682-3.284c0.132-0.494,0.165-0.954,0.026-1.355c-0.849-2.456,0.5-2.69,2.132-1.011
		c0.903,0.929,1.478,2.084,1.769,3.275c1.151,1.434,1.653,3.797,0.806,5.933c-2.683,6.773-3.593,17.958-15.003,23.312
		c7.461,10.213,19.859,14.871,31.165,15.225c13.859,0.437,28.54-4.001,38.443-7.324c13.937-16.05,35.387-25.349,61.067-26.553
		c19.544-0.916,35.999,5.079,48.721,15.562c14.066-6.16,33.76-12.609,48.525-15.689c23.825-4.969,36.344-3.463,29.669,23.225
		c-9.225,19.137-17.072,21.83-31.188,29.019c-3.025,2.201,0.416,10.542,2.027,17.192c1.279-0.196,2.435-0.49,2.944-1.229
		c1.484-2.15,2.478-1.198,2.092,1.126c-0.421,2.535-2.308,4.561-4.312,5.481c-0.056,1.001-0.286,1.838-0.777,2.431
		c1.993-1.15,3.304-1.889,4.662-2.085c1.399-0.986,2.854-1.989,2.99-3.149C569.855,120.145,571.178,120.522,571.921,122.758z
		 M111.783,78.784c0,0.435,0.186,0.793,0.557,1.073c0.371,0.281,0.774,0.421,1.208,0.421c0.886,0,1.493-0.688,1.819-2.063
		c0.163-0.67,0.335-1.738,0.516-3.205c0.181-1.466,0.443-2.814,0.788-4.045l5.485,0.814c0.543,3.004,0.815,5.295,0.815,6.87
		c0,0.724,0.218,1.212,0.652,1.466c0.434,0.253,1.041,0.381,1.819,0.381c0.616-0.235,0.924-0.761,0.924-1.575v-0.055
		c0-0.543-0.177-1.691-0.53-3.448c-0.352-1.756-0.529-2.86-0.529-3.313l-0.598-3.422c0-2.444-0.375-6.443-1.126-12.003
		c-0.752-5.558-1.128-9.748-1.128-12.572c0-0.471-0.189-0.823-0.569-1.06c-0.38-0.235-0.825-0.353-1.332-0.353h-1.873
		c-0.508,0.742-0.851,2.471-1.033,5.187c-0.071,1.231-0.126,1.974-0.162,2.228c-1.212,9.143-3.069,18.537-5.567,28.187
		L111.783,78.784z M47.506,66.537c0,7.114,1.232,11.469,3.694,13.062c0.452,0.29,1.136,0.558,2.049,0.801
		c0.915,0.246,1.788,0.368,2.621,0.368c2.045,0,3.069-0.733,3.069-2.2c0-0.416-0.173-0.724-0.517-0.923
		c-0.343-0.198-0.733-0.299-1.167-0.299c-0.362,0.325-0.76,0.488-1.195,0.488c-1.303,0-2.372-0.398-3.205-1.195
		c-0.361-0.343-0.674-0.782-0.937-1.316c-0.263-0.533-0.516-1.235-0.76-2.104c-0.245-0.868-0.367-2.436-0.367-4.697l0.245-10.727
		v-0.271c-0.019-1.756,0.208-3.974,0.679-6.653c0.253-1.412,0.651-2.606,1.194-3.585c0.562-0.978,1.223-1.466,1.983-1.466H57.5
		c0.343-0.019,0.629-0.177,0.855-0.476s0.341-0.638,0.341-1.019c0-0.38-0.142-0.706-0.421-0.978c-0.282-0.271-0.71-0.408-1.29-0.408
		c-2.408,0-4.4,0.707-5.975,2.12c-1.158,1.013-2.063,2.842-2.716,5.484c-0.543,2.136-0.813,5.938-0.813,11.406v1.33L47.506,66.537z
		 M63.38,134.479c0-0.542-0.177-1.691-0.53-3.448c-0.354-1.756-0.53-2.86-0.53-3.313l-0.597-3.421c0-2.444-0.376-6.445-1.128-12.004
		c-0.751-5.557-1.126-9.749-1.126-12.573c0-0.471-0.189-0.823-0.57-1.058c-0.379-0.237-0.824-0.354-1.331-0.354h-1.874
		c-0.507,0.741-0.851,2.471-1.032,5.186c-0.073,1.231-0.127,1.974-0.162,2.228c-1.214,9.143-3.069,18.538-5.567,28.188l-0.136,0.489
		c0,0.434,0.186,0.791,0.556,1.071c0.372,0.281,0.774,0.422,1.209,0.422c0.886,0,1.493-0.688,1.819-2.063
		c0.163-0.67,0.334-1.737,0.516-3.205c0.181-1.467,0.443-2.814,0.788-4.046l5.485,0.814c0.543,3.006,0.815,5.295,0.815,6.87
		c0,0.724,0.217,1.214,0.652,1.467c0.434,0.254,1.041,0.38,1.819,0.38c0.615-0.235,0.924-0.761,0.924-1.575V134.479z M65.972,70.965
		l5.485,0.814c0.543,3.004,0.815,5.295,0.815,6.87c0,0.724,0.218,1.212,0.652,1.466c0.434,0.253,1.041,0.381,1.819,0.381
		c0.616-0.235,0.924-0.761,0.924-1.575v-0.055c0-0.543-0.177-1.691-0.53-3.448c-0.352-1.756-0.529-2.86-0.529-3.313l-0.598-3.422
		c0-2.444-0.376-6.443-1.127-12.003c-0.752-5.558-1.128-9.748-1.128-12.572c0-0.471-0.189-0.823-0.569-1.06
		c-0.381-0.235-0.825-0.353-1.332-0.353h-1.873c-0.508,0.742-0.851,2.471-1.033,5.187c-0.072,1.231-0.126,1.974-0.163,2.228
		c-1.212,9.143-3.069,18.537-5.567,28.187l-0.136,0.488c0,0.435,0.186,0.793,0.558,1.073c0.37,0.281,0.773,0.421,1.208,0.421
		c0.886,0,1.493-0.688,1.819-2.063c0.163-0.67,0.335-1.738,0.516-3.205C65.366,73.544,65.628,72.195,65.972,70.965z M80.352,100.563
		c-0.018-0.74-0.1-1.339-0.244-1.792c-0.109-0.29-0.281-0.506-0.516-0.651c-0.253-0.163-0.63-0.244-1.128-0.244
		c-0.498,0-0.846,0.108-1.044,0.325c-0.2,0.218-0.299,0.543-0.299,0.979l0.027,0.924v3.122c0,19.932-1.322,29.897-3.965,29.897
		c-2.354,0-3.53-1.358-3.53-4.072c0-1.322-0.131-3.286-0.394-5.894c-0.263-2.606-0.394-4.571-0.394-5.893v-15.125
		c0-0.76-0.173-1.48-0.516-2.16c-0.345-0.678-0.738-1.019-1.181-1.019c-0.444,0-0.838,0.39-1.181,1.169l0.244,7.956
		c0,5.794,0.022,10.225,0.067,13.293c0.045,3.069,0.221,5.789,0.529,8.16c0.2,1.538,0.762,3.087,1.684,4.644
		c0.888,1.521,2.254,2.271,4.101,2.254c4.779,0,7.169-8.229,7.169-24.684l-0.055-0.951l0.244-4.643L80.352,100.563z
		 M100.609,100.808c0-0.978-1.05-1.62-3.15-1.928c-0.924-0.145-1.711-0.235-2.363-0.271c-0.633-0.037-1.227-0.055-1.778-0.055
		c-0.552,0-1.051,0.146-1.494,0.436c-0.443,0.288-0.666,0.696-0.666,1.221c0,2.335-0.073,4.853-0.217,7.55v1.358
		c-0.109,1.883-0.24,5.878-0.394,11.988c-0.153,6.109-0.384,10.821-0.692,14.135c0.742,0.56,1.403,0.841,1.983,0.841
		c0.959,0,1.438-0.814,1.438-2.444v-15.749c0.688,0.217,1.354,0.325,1.996,0.325c0.643,0,1.163-0.148,1.562-0.447
		c0.398-0.299,0.598-0.692,0.598-1.183c0-0.977-0.896-1.466-2.688-1.466l-1.032,0.027v-1.493l0.516-11.161v-0.651h0.651
		c1.196,0,2.164,0.181,2.907,0.542C99.667,102.382,100.609,101.858,100.609,100.808z M102.279,82.125
		c0.344-0.508,0.516-0.982,0.516-1.426c0-0.444-0.081-0.865-0.244-1.263l-0.108-1.086c-0.218-2.228-0.326-3.549-0.326-3.965v-0.027
		l0.135-5.865c0-2.408-0.118-6.272-0.352-11.596c-0.237-5.323-0.354-9.322-0.354-12.003c0-0.471-0.217-0.842-0.652-1.113
		c-0.434-0.271-0.896-0.407-1.384-0.407c-1.086,0-2.408,2.787-3.965,8.363c-0.688,2.427-1.323,4.835-1.901,7.225
		c-0.581,2.371-1.128,4.657-1.644,6.855c-0.516,2.2-0.855,3.572-1.018,4.114c-0.543-2.86-1.992-8.015-4.345-15.465
		c-2.353-7.449-3.929-11.175-4.725-11.175c-0.526,0-1.015,0.109-1.467,0.326s-0.678,0.539-0.678,0.965s0.108,0.811,0.325,1.153
		c0,3.784-0.285,9.451-0.855,16.999c-0.57,7.55-0.855,13.216-0.855,17c0,0.361,0.172,0.675,0.516,0.936
		c0.343,0.264,0.788,0.396,1.331,0.396s0.941-0.159,1.194-0.476c0.253-0.317,0.38-0.774,0.38-1.372l-0.082-1.656
		c0-4.599,0.354-13.433,1.059-26.504c0.96,2.915,2.132,7.11,3.517,12.588c1.384,5.476,2.077,9.092,2.077,10.848
		c0,0.725,0.204,1.303,0.611,1.738c0.408,0.434,0.973,0.652,1.698,0.652c1.212,0,3.23-5.993,6.055-17.978
		c1.086-4.635,1.71-7.196,1.874-7.685c0,0.76-0.037,1.905-0.109,3.435c-0.073,1.53-0.108,2.847-0.108,3.951s0.135,3.25,0.407,6.436
		c0.271,3.187,0.408,5.604,0.408,7.251l-0.027,7.114c0,2.317,0.578,3.477,1.737,3.477C101.482,82.886,101.935,82.632,102.279,82.125
		z M117.337,120.631l-0.109-6.3v-0.407c0-3.657-0.47-6.734-1.411-9.233c-1.629-4.345-4.599-6.517-8.907-6.517
		c-0.507,0-1.023,0.244-1.548,0.733c-0.525,0.488-1.068,1.773-1.629,3.856c-0.67,2.461-1.004,6.607-1.004,12.436v1.006
		c0.055,0,0.082,0.091,0.082,0.271l-0.055,2.118c0,2.316,0.189,5.06,0.57,8.228c0.234,2.102,0.868,4.236,1.9,6.408
		c1.086,2.264,2.652,3.396,4.699,3.396C114.865,136.626,117.337,131.295,117.337,120.631z M129.773,126.307
		c0.018-2.915-0.552-5.503-1.71-7.767c-0.507-0.978-1.046-1.987-1.617-3.028c-0.569-1.04-1.103-1.99-1.602-2.851
		c-0.498-0.86-0.91-1.843-1.234-2.947c-0.326-1.103-0.489-2.032-0.489-2.783s0.044-1.407,0.135-1.969
		c0.416-2.57,1.212-3.882,2.39-3.937c0.379,0.217,0.769,0.324,1.167,0.324c0.906,0,1.358-0.425,1.358-1.275
		c0-0.489-0.294-0.941-0.882-1.357c-0.589-0.417-1.208-0.625-1.859-0.625c-1.739,0-3.133,1.194-4.183,3.584
		c-0.561,1.285-0.841,2.762-0.841,4.428c0,2.714,0.777,5.484,2.335,8.31c0.651,1.194,1.307,2.366,1.968,3.516
		c0.66,1.15,1.218,2.396,1.67,3.735c0.452,1.339,0.68,2.691,0.68,4.059s-0.246,2.937-0.734,4.711
		c-0.253,0.924-0.642,1.694-1.167,2.309c-0.525,0.616-1.141,0.924-1.846,0.924l-2.309-0.408l-0.624,0.951
		c0.145,1.213,0.978,1.928,2.498,2.145v-0.135c1.196-0.019,2.258-0.349,3.191-0.992c0.932-0.642,1.652-1.47,2.158-2.484
		C129.276,130.695,129.792,128.552,129.773,126.307z M131.335,80.604c1.195-0.019,2.258-0.349,3.191-0.99
		c0.932-0.644,1.651-1.471,2.158-2.485c1.05-2.046,1.566-4.191,1.547-6.437c0.019-2.913-0.552-5.502-1.71-7.765
		c-0.508-0.978-1.046-1.987-1.616-3.029c-0.571-1.041-1.104-1.991-1.603-2.851c-0.498-0.859-0.909-1.842-1.235-2.946
		c-0.325-1.104-0.489-2.032-0.489-2.783s0.045-1.407,0.136-1.97c0.416-2.569,1.212-3.883,2.39-3.937
		c0.379,0.218,0.77,0.325,1.167,0.325c0.906,0,1.358-0.425,1.358-1.276c0-0.488-0.293-0.94-0.882-1.357
		c-0.588-0.417-1.208-0.625-1.859-0.625c-1.739,0-3.133,1.195-4.183,3.585c-0.562,1.285-0.842,2.76-0.842,4.426
		c0,2.716,0.778,5.486,2.336,8.31c0.651,1.195,1.307,2.368,1.969,3.518c0.66,1.148,1.216,2.394,1.669,3.733
		c0.452,1.34,0.678,2.693,0.678,4.061s-0.244,2.937-0.733,4.711c-0.253,0.924-0.643,1.692-1.168,2.308s-1.14,0.924-1.845,0.924
		l-2.309-0.407l-0.625,0.95c0.146,1.214,0.979,1.928,2.499,2.146V80.604z M143.705,100.481c0-0.887-0.58-1.33-1.737-1.33
		l-0.897,0.027l-7.549-0.516c-0.379,0-0.77,0.112-1.167,0.339c-0.399,0.228-0.598,0.512-0.598,0.854
		c0,1.051,1.502,1.603,4.508,1.657c0.073,0,0.146,0,0.217,0c0.036,1.757,0.275,6.581,0.72,14.474
		c0.443,7.894,0.738,12.076,0.882,12.546c-0.053,1.249-0.081,1.883-0.081,1.9l0.108,4.265l1.032,0.732
		c0.47,0,0.906-0.167,1.303-0.503c0.399-0.334,0.598-0.719,0.598-1.153c0-3.531-0.308-8.799-0.922-15.805
		c-0.616-7.006-0.924-12.266-0.924-15.778l0.109-0.568l2.552,0.379c0.47,0,0.896-0.14,1.276-0.421
		C143.515,101.301,143.705,100.934,143.705,100.481z M147.601,79.816c0.471,0,0.906-0.167,1.304-0.502
		c0.399-0.335,0.598-0.72,0.598-1.155c0-3.529-0.308-8.798-0.924-15.804c-0.615-7.006-0.923-12.265-0.923-15.777l0.109-0.57
		l2.552,0.381c0.471,0,0.897-0.141,1.276-0.421c0.38-0.28,0.57-0.647,0.57-1.101c0-0.887-0.58-1.329-1.739-1.329l-0.895,0.025
		l-7.55-0.516c-0.379,0-0.769,0.113-1.167,0.339c-0.399,0.228-0.598,0.513-0.598,0.856c0,1.05,1.502,1.603,4.508,1.657
		c0.071,0,0.144,0,0.217,0c0.037,1.755,0.276,6.58,0.72,14.473c0.443,7.894,0.737,12.075,0.882,12.546
		c-0.055,1.25-0.082,1.883-0.082,1.901l0.109,4.263L147.601,79.816z M152.612,134.494c0-0.57-0.2-1.072-0.598-1.508
		c-0.397-0.434-0.869-0.65-1.413-0.65c-0.542,0-1.022,0.217-1.438,0.65c-0.417,0.436-0.625,0.919-0.625,1.453
		s0.186,1.004,0.558,1.412c0.37,0.407,0.842,0.611,1.411,0.611c0.57,0,1.064-0.187,1.48-0.557
		C152.404,135.535,152.612,135.064,152.612,134.494z M157.242,80.713h4.697c0.616,0,1.168-0.128,1.657-0.381
		c0.489-0.254,0.733-0.66,0.733-1.222c0-0.905-0.706-1.357-2.118-1.357l-4.1,0.135c-0.073,0-0.109-1.039-0.109-3.122l0.244-10.074
		c0-1.394-0.055-2.797-0.163-4.209h1.413c0.578,0.072,1.118,0.107,1.615,0.107s0.91-0.149,1.236-0.447
		c0.326-0.299,0.488-0.648,0.488-1.046c0-1.014-0.896-1.521-2.688-1.521l-1.983,0.081c-0.108-0.542-0.162-0.832-0.162-0.868
		l0.244-7.984c0-0.796-0.027-1.592-0.082-2.389c1.088,0.127,2.49,0.479,4.21,1.058c1.086-0.397,1.629-0.978,1.629-1.737
		c0-0.724-0.86-1.316-2.581-1.778c-1.721-0.462-3.077-0.691-4.073-0.691c-1.558,0-2.336,1.313-2.336,3.936l0.299,4.698
		l-0.379,16.239l0.352,9.396v1.466c0.018,0.472,0.226,0.875,0.625,1.209C156.309,80.545,156.753,80.713,157.242,80.713z
		 M164.696,134.494c0-0.57-0.2-1.072-0.598-1.508c-0.399-0.434-0.869-0.65-1.413-0.65c-0.543,0-1.022,0.217-1.439,0.65
		c-0.416,0.436-0.624,0.919-0.624,1.453s0.186,1.004,0.556,1.412c0.372,0.407,0.842,0.611,1.413,0.611s1.063-0.187,1.48-0.557
		C164.487,135.535,164.696,135.064,164.696,134.494z M176.78,134.494c0-0.57-0.199-1.072-0.597-1.508
		c-0.399-0.434-0.869-0.65-1.413-0.65c-0.543,0-1.022,0.217-1.439,0.65c-0.416,0.436-0.625,0.919-0.625,1.453
		s0.186,1.004,0.557,1.412c0.371,0.407,0.842,0.611,1.413,0.611s1.063-0.187,1.48-0.557
		C176.572,135.535,176.78,135.064,176.78,134.494z M181.057,78.866c0-0.543-0.177-1.691-0.53-3.448
		c-0.353-1.756-0.529-2.86-0.529-3.313l-0.598-3.422c0-2.444-0.375-6.443-1.126-12.003c-0.752-5.558-1.128-9.748-1.128-12.572
		c0-0.471-0.19-0.823-0.57-1.06c-0.379-0.235-0.824-0.353-1.331-0.353h-1.874c-0.507,0.742-0.851,2.471-1.032,5.187
		c-0.071,1.231-0.126,1.974-0.162,2.228c-1.214,9.143-3.069,18.537-5.567,28.187l-0.136,0.488c0,0.435,0.186,0.793,0.557,1.073
		c0.371,0.281,0.773,0.421,1.208,0.421c0.886,0,1.493-0.688,1.819-2.063c0.162-0.67,0.334-1.738,0.516-3.205
		c0.181-1.466,0.443-2.814,0.788-4.045l5.485,0.814c0.543,3.004,0.814,5.295,0.814,6.87c0,0.724,0.217,1.212,0.652,1.466
		c0.434,0.253,1.041,0.381,1.819,0.381c0.616-0.235,0.924-0.761,0.924-1.575V78.866z M536.237,122.978
		c-3.516-31.958-30.757-73.382-74.207-68.165c-44.898,5.391-70.281,36.837-66.858,82.873c2.346,31.534,34.765,39.446,68.862,38.107
		C498.127,174.456,540.769,164.169,536.237,122.978z M554.412,94.423c10.303-6.107,19.407-15.952,22.206-28.988
		c0.873-4.067-31.851,6.526-51.771,13.502c6.237,8.278,10.949,17.963,13.974,28.478c0.23-2.218,1.7-4.919,4.26-7.013
		c3.174-3.219,7.842-4.403,11.267-6.079L554.412,94.423z M428.438,74.035l42.667-12.537c0,0,34.785,7.576,34.787,13.514
		c0.473,1.419,0.127,2.852-0.835,4.245c-0.515-0.566-1.31-1.287-2.269-2.096c-3.246-2.741-10.989-2.743-6.46-3.308
		c4.526-0.565,1.965-3.634-4.023-3.128c-5.986,0.505-12.958,0.892-8.787-0.598c4.171-1.489-5.039-3.856-12.985-1.284
		c-8.012,2.594-7.957,6.075,0.624,5.006c8.579-1.071,25.645,3.817,30.977,5.813c0.847,0.316,1.523,0.539,2.048,0.678
		c-1.052,1.131-2.49,2.23-4.218,3.266c1.083,2.405,1.692,5.066,1.692,7.868c0,10.612-8.657,19.268-19.268,19.268
		c-6.968,0-13.09-3.73-16.476-9.296c-0.594,8.754-7.917,15.712-16.817,15.712c-9.284,0-16.858-7.572-16.858-16.858
		c0-0.493,0.026-0.98,0.069-1.464c-3.522-0.426-6.708-1.162-9.144-2.147C412.821,92.509,428.438,74.035,428.438,74.035z
		 M470.824,91.475c0,6.368,5.195,11.561,11.563,11.561c6.366,0,11.56-5.192,11.56-11.561c0-1.188-0.182-2.334-0.518-3.414
		c-0.368,2.199-2.283,3.886-4.582,3.886c-1.793,0-3.35-1.022-4.127-2.515c-4.709,1.131-9.573,1.804-13.885,1.831
		C470.833,91.334,470.824,91.403,470.824,91.475z M458.773,100.3c0-0.469-0.045-0.925-0.11-1.377
		c-0.854,1.071-2.166,1.765-3.638,1.765c-1.854,0-3.458-1.1-4.204-2.677c-3.589,0.833-7.507,1.216-11.344,1.232
		c-0.039,0.348-0.061,0.699-0.061,1.057c0,5.33,4.348,9.68,9.678,9.68C454.426,109.979,458.773,105.63,458.773,100.3z
		 M429.707,92.431c4.158-4.215,17.502-15.298,26.066-18.038c8.565-2.739,7.724-7.044-0.971-5.989
		c-8.624,1.046-16.282,7.308-11.696,6.89c4.587-0.419-2.161,2.265-8.031,4.406c-5.874,2.139-6.949,6.155-2.429,4.709
		c4.522-1.446-2.787,1.941-4.653,5.948C426.127,94.363,425.546,96.646,429.707,92.431z M113.617,107.324v-0.977
		c-0.037-1.358-0.479-2.566-1.331-3.626c-0.852-1.059-1.938-1.589-3.259-1.589c-1.267,0-2.109,0.716-2.524,2.146
		c-0.345,1.195-0.516,2.672-0.516,4.427l0.053,3.286l-0.271,5.132c0,5.377,0.436,10.066,1.305,14.066
		c0.922,2.336,1.801,3.712,2.634,4.128c0.669,0,1.276-0.271,1.819-0.814c0.543-0.544,0.973-1.272,1.289-2.187
		c0.317-0.913,0.584-1.877,0.802-2.892c0.199-0.996,0.353-2.063,0.461-3.205c0.181-1.972,0.272-3.656,0.272-5.051
		c0-1.393-0.123-3.53-0.367-6.408S113.617,108.737,113.617,107.324z M176.101,61.935c-0.154-1.999-0.376-4.327-0.665-6.979
		c-0.29-2.652-0.49-4.575-0.598-5.77c-1.684,9.322-2.771,15.895-3.259,19.713c0.634,0.417,2.271,0.716,4.916,0.896
		c-0.109-0.543-0.164-1.488-0.164-2.838C176.331,65.611,176.254,63.935,176.101,61.935z M463.237,164.908
		c-40.741,0-52.929-31.262-48.146-35.552c7.982-7.165,15.687,1.714,39.112,3.952c-0.066,0.514-0.113,1.034-0.113,1.571
		c0,5.463,3.559,9.889,7.947,9.889c4.387,0,7.947-4.426,7.947-9.889c0-0.448-0.031-0.886-0.078-1.319
		c0.127-0.012,0.258-0.021,0.386-0.033c1.224,3.496,4.023,5.943,7.283,5.943c4.391,0,7.948-4.426,7.948-9.889
		c0-0.079-0.006-0.157-0.009-0.236c14.951-7.156,20.792-20.315,29.569-19.248C543.2,113.513,503.975,164.908,463.237,164.908z
		 M484.697,152.706c-2.761-4.034-5.972-6.742-9.014-8.24c-2.122-1.046-3.87,16.391-5.618,16.484
		c-1.959,0.104-4.626-17.12-7.052-15.899c-5.521,2.78-11.309,8.418-13.098,16.766c4.133,1.238,8.892,1.98,14.331,1.98
		c4.52,0,9.013-0.842,13.323-2.284c-0.038-0.354-0.064-0.711-0.064-1.076c0-4.315,2.812-7.814,6.279-7.814
		C484.095,152.622,484.399,152.652,484.697,152.706z M540.729,94.223c2.727-2.078,5.719-3.302,8.226-4.328
		c0.983-0.401,1.911-0.782,2.665-1.15l0.871-0.426c1.295-0.821,2.739-1.828,4.231-3.014c-6.784,0-13.568,0-20.354,0
		C537.964,88.169,539.42,91.142,540.729,94.223z M121.642,66.958c0-1.347-0.078-3.023-0.231-5.023
		c-0.154-1.999-0.375-4.327-0.665-6.979c-0.29-2.652-0.489-4.575-0.598-5.77c-1.683,9.322-2.771,15.895-3.259,19.713
		c0.634,0.417,2.272,0.716,4.916,0.896C121.695,69.253,121.642,68.308,121.642,66.958z M922.698,110.166
		c-0.521,0.608-1.129,0.914-1.827,0.914l-2.284-0.405l-0.618,0.943c0.144,1.2,0.968,1.906,2.473,2.122v-0.135
		c1.183-0.02,2.234-0.345,3.157-0.98s1.635-1.457,2.137-2.459c1.039-2.024,1.549-4.148,1.531-6.368
		c0.018-2.886-0.547-5.447-1.692-7.686c-0.502-0.97-1.035-1.968-1.6-2.995c-0.563-1.032-1.093-1.973-1.586-2.824
		c-0.492-0.85-0.9-1.821-1.223-2.914c-0.322-1.095-0.483-2.011-0.483-2.755c0-0.745,0.044-1.395,0.136-1.948
		c0.41-2.544,1.197-3.844,2.363-3.896c0.375,0.215,0.762,0.319,1.155,0.319c0.896,0,1.344-0.419,1.344-1.263
		c0-0.481-0.291-0.931-0.872-1.344c-0.584-0.41-1.197-0.618-1.842-0.618c-1.72,0-3.1,1.185-4.137,3.55
		c-0.557,1.272-0.834,2.73-0.834,4.381c0,2.685,0.769,5.427,2.31,8.223c0.645,1.181,1.295,2.341,1.949,3.479
		c0.652,1.137,1.205,2.367,1.653,3.695c0.447,1.324,0.67,2.664,0.67,4.016c0,1.355-0.241,2.906-0.725,4.663
		C923.603,108.796,923.217,109.557,922.698,110.166z M926.782,135.552c-4.03,0-6.046,0.52-6.046,1.558
		c0,0.394,0.139,0.747,0.417,1.063c0.278,0.312,0.613,0.47,1.007,0.47l4.488-0.322c-0.484,1.897-1.962,6.925-4.434,15.076
		c-2.473,8.148-3.71,13.863-3.71,17.144c0,0.607,0.153,1.035,0.458,1.275c0.304,0.242,0.613,0.361,0.928,0.361
		c0.312,0,0.675-0.096,1.089-0.294c0.41-0.198,0.732-0.296,0.967-0.296l3.251,0.162c0.483,0,0.922-0.111,1.317-0.336
		c0.393-0.226,0.591-0.559,0.591-1.008c0-0.897-0.744-1.345-2.23-1.345v0.027l-2.311,0.163h-0.94
		c0.143-0.736,0.94-3.898,2.391-9.486c1.451-5.59,2.409-9.847,2.877-12.766c0.143-0.897,0.612-2.449,1.411-4.662
		c0.795-2.213,1.192-3.964,1.192-5.253C929.495,136.063,928.591,135.552,926.782,135.552z M944.143,110.569v1.451
		c0.018,0.466,0.224,0.864,0.618,1.195c0.394,0.33,0.833,0.498,1.316,0.498h4.65c0.608,0,1.154-0.128,1.638-0.376
		c0.483-0.253,0.727-0.653,0.727-1.209c0-0.898-0.701-1.344-2.098-1.344l-4.057,0.132c-0.071,0-0.108-1.027-0.108-3.09l0.242-9.968
		c0-1.38-0.055-2.769-0.161-4.166h1.398c0.571,0.072,1.105,0.105,1.598,0.105c0.494,0,0.9-0.146,1.223-0.441
		c0.324-0.297,0.485-0.64,0.485-1.033c0-1.006-0.887-1.506-2.661-1.506l-1.963,0.08c-0.106-0.536-0.161-0.823-0.161-0.861
		l0.242-7.897c0-0.789-0.026-1.579-0.081-2.366c1.076,0.126,2.464,0.476,4.166,1.049c1.076-0.396,1.613-0.967,1.613-1.723
		c0-0.716-0.852-1.303-2.554-1.759s-3.046-0.685-4.03-0.685c-1.542,0-2.311,1.298-2.311,3.896l0.295,4.649l-0.376,16.069
		L944.143,110.569z M914.313,169.868l-4.058,0.134c-0.071,0-0.106-1.031-0.106-3.092l0.242-9.968c0-1.379-0.055-2.768-0.162-4.167
		h1.396c0.574,0.071,1.107,0.107,1.6,0.107s0.9-0.146,1.223-0.441s0.483-0.64,0.483-1.035c0-1.004-0.887-1.505-2.658-1.505
		l-1.963,0.081c-0.108-0.536-0.161-0.823-0.161-0.861l0.242-7.898c0-0.788-0.028-1.578-0.081-2.365
		c1.075,0.123,2.463,0.475,4.165,1.047c1.074-0.394,1.612-0.967,1.612-1.72c0-0.716-0.851-1.304-2.553-1.76
		c-1.704-0.459-3.046-0.685-4.03-0.685c-1.543,0-2.313,1.298-2.313,3.896l0.296,4.649l-0.377,16.068l0.35,9.297v1.454
		c0.018,0.466,0.226,0.864,0.617,1.193c0.396,0.332,0.835,0.499,1.318,0.499h4.648c0.608,0,1.155-0.126,1.639-0.377
		s0.727-0.653,0.727-1.207C916.41,170.314,915.711,169.868,914.313,169.868z M945.566,134.987c-0.251-0.162-0.624-0.242-1.115-0.242
		c-0.493,0-0.838,0.107-1.034,0.322c-0.198,0.217-0.296,0.536-0.296,0.967l0.027,0.916v3.088c0,19.727-1.309,29.587-3.924,29.587
		c-2.329,0-3.494-1.344-3.494-4.032c0-1.305-0.131-3.25-0.388-5.828c-0.261-2.58-0.392-4.525-0.392-5.834v-14.966
		c0-0.755-0.17-1.466-0.509-2.137c-0.342-0.674-0.731-1.01-1.171-1.01s-0.826,0.387-1.17,1.157l0.243,7.875
		c0,5.731,0.022,10.115,0.066,13.152c0.047,3.037,0.221,5.729,0.525,8.074c0.196,1.523,0.752,3.057,1.666,4.595
		c0.878,1.505,2.229,2.25,4.057,2.232c4.729,0,7.096-8.142,7.096-24.428l-0.054-0.94l0.241-4.595l0.378-5.535
		c-0.019-0.735-0.101-1.324-0.243-1.774C945.97,135.347,945.799,135.131,945.566,134.987z M933.903,79.263
		c0.036,1.737,0.272,6.511,0.713,14.322c0.438,7.812,0.729,11.95,0.872,12.415c-0.053,1.237-0.08,1.865-0.08,1.882l0.108,4.221
		l1.019,0.723c0.469,0,0.897-0.165,1.292-0.497c0.393-0.331,0.591-0.71,0.591-1.141c0-3.494-0.305-8.707-0.913-15.641
		c-0.61-6.933-0.913-12.136-0.913-15.611l0.107-0.565l2.525,0.377c0.466,0,0.887-0.139,1.264-0.418
		c0.376-0.277,0.564-0.64,0.564-1.088c0-0.879-0.574-1.317-1.721-1.317l-0.887,0.028l-7.471-0.511c-0.377,0-0.762,0.112-1.157,0.337
		c-0.393,0.224-0.59,0.505-0.59,0.845c0,1.038,1.486,1.588,4.461,1.64C933.76,79.263,933.833,79.263,933.903,79.263z
		 M882.282,169.868l-4.058,0.134c-0.071,0-0.107-1.031-0.107-3.092l0.242-9.968c0-1.379-0.056-2.768-0.162-4.167h1.398
		c0.571,0.071,1.105,0.107,1.598,0.107c0.494,0,0.9-0.146,1.223-0.441c0.324-0.296,0.485-0.64,0.485-1.035
		c0-1.004-0.887-1.505-2.661-1.505l-1.962,0.081c-0.107-0.536-0.161-0.823-0.161-0.861l0.242-7.898c0-0.788-0.027-1.578-0.081-2.365
		c1.075,0.123,2.463,0.475,4.165,1.047c1.076-0.394,1.613-0.967,1.613-1.72c0-0.716-0.852-1.304-2.554-1.76
		c-1.702-0.459-3.046-0.685-4.03-0.685c-1.541,0-2.311,1.298-2.311,3.896l0.296,4.649l-0.377,16.068l0.349,9.297v1.454
		c0.018,0.466,0.225,0.864,0.618,1.193c0.394,0.332,0.833,0.499,1.317,0.499h4.649c0.608,0,1.154-0.126,1.638-0.377
		s0.727-0.653,0.727-1.207C884.379,170.314,883.678,169.868,882.282,169.868z M892.654,97.268c2.633,7.292,3.95,11.616,3.95,12.977
		l-0.025,0.244c0.088,0.18,0.196,0.537,0.322,1.073c0.124,0.541,0.291,0.938,0.496,1.197s0.502,0.391,0.888,0.391
		c0.383,0,1.078-0.153,2.083-0.458c0.59-0.931,1.06-5.003,1.409-12.214s0.542-12.973,0.578-17.291v-4.166
		c0-0.574-0.13-1.075-0.39-1.506c-0.26-0.429-0.649-0.645-1.169-0.645c-0.912,0-1.37,0.547-1.37,1.64l0.081,1.478
		c0,10.929-0.366,20.237-1.102,27.921c-0.253-0.628-0.892-2.744-1.922-6.354c-1.031-3.611-2.065-7.189-3.104-10.735
		c-1.039-3.548-2.205-6.804-3.494-9.768c-1.291-2.966-2.365-4.447-3.225-4.447c-0.125,0-0.261,0.043-0.403,0.134v-0.349
		c-1.344,1.003-2.016,2.355-2.016,4.055l-0.322,10.267l0.108,18.864c0,2.241,0.6,3.358,1.798,3.358c0.45,0,0.84-0.17,1.171-0.511
		c0.332-0.339,0.496-0.681,0.496-1.02c0-0.341-0.115-0.708-0.35-1.103c-0.106-0.179-0.179-0.305-0.213-0.375V82.218
		C888.111,84.96,890.021,89.975,892.654,97.268z M907.327,113.216c0.394,0.33,0.832,0.498,1.316,0.498h4.648
		c0.609,0,1.156-0.128,1.64-0.376c0.483-0.253,0.727-0.653,0.727-1.209c0-0.898-0.7-1.344-2.098-1.344l-4.058,0.132
		c-0.07,0-0.106-1.027-0.106-3.09l0.241-9.968c0-1.38-0.053-2.769-0.161-4.166h1.398c0.571,0.072,1.104,0.105,1.598,0.105
		s0.901-0.146,1.224-0.441c0.322-0.297,0.483-0.64,0.483-1.033c0-1.006-0.888-1.506-2.66-1.506l-1.962,0.08
		c-0.108-0.536-0.161-0.823-0.161-0.861l0.241-7.897c0-0.789-0.027-1.579-0.08-2.366c1.075,0.126,2.463,0.476,4.164,1.049
		c1.076-0.396,1.612-0.967,1.612-1.723c0-0.716-0.851-1.303-2.552-1.759c-1.702-0.456-3.046-0.685-4.03-0.685
		c-1.541,0-2.313,1.298-2.313,3.896l0.297,4.649l-0.376,16.069l0.35,9.299v1.451C906.728,112.486,906.933,112.885,907.327,113.216z
		 M903.754,169.896c0.374,0.716,0.564,1.275,0.564,1.68c0,0.4-0.112,0.742-0.336,1.019c-0.225,0.279-0.524,0.419-0.9,0.419
		c-0.771,0-1.51-0.884-2.218-2.648c-0.708-1.764-1.276-3.721-1.706-5.871c-1.309-6.573-2.105-10.195-2.393-10.856h-0.67
		l-0.055,5.966c0,4.854,0.35,8.679,1.047,11.474l-0.618,1.478h-1.531l-0.725-0.805c0.036-1.648,0.055-3.496,0.055-5.55
		c0-2.05-0.159-6.435-0.471-13.153c-0.314-6.72-0.47-11.735-0.47-15.05c0-1.736,0.607-2.606,1.826-2.606
		c1.916,0,3.529,0.503,4.837,1.506c1.309,1.002,1.962,2.437,1.962,4.298v3.873c0,1.055-0.197,2.019-0.593,2.887
		c-0.393,0.869-0.85,1.781-1.369,2.74c-0.52,0.961-0.806,1.492-0.859,1.6c0.196,0.896,0.545,2.652,1.049,5.266
		C901.254,163.275,902.447,167.386,903.754,169.896z M898.419,147.414c0.527-1.888,0.792-3.337,0.792-4.339
		c0-1.003-0.025-1.74-0.079-2.218c-0.056-0.475-0.173-0.998-0.35-1.57c-0.358-1.182-1.183-1.801-2.474-1.855l-0.188,0.778
		c0,1.506,0.035,3.679,0.108,6.52c0.071,2.838,0.107,4.902,0.107,6.194C897.196,150.474,897.892,149.305,898.419,147.414z
		 M971.149,136.008l-0.887,0.026l-7.472-0.509c-0.375,0-0.761,0.112-1.154,0.336c-0.396,0.225-0.592,0.507-0.592,0.846
		c0,1.038,1.486,1.584,4.46,1.64c0.072,0,0.144,0,0.216,0c0.036,1.737,0.272,6.512,0.712,14.321
		c0.439,7.813,0.73,11.951,0.873,12.417c-0.052,1.236-0.081,1.861-0.081,1.881l0.108,4.218l1.021,0.726
		c0.466,0,0.896-0.165,1.29-0.496c0.393-0.332,0.59-0.712,0.59-1.142c0-3.494-0.304-8.707-0.913-15.642
		c-0.609-6.932-0.914-12.137-0.914-15.612l0.108-0.564l2.524,0.378c0.468,0,0.888-0.139,1.265-0.418
		c0.375-0.277,0.565-0.642,0.565-1.088C972.87,136.447,972.295,136.008,971.149,136.008z M988.887,99.646
		c-0.234,5.473-0.352,9.571-0.352,12.295c0,0.445,0.152,0.858,0.458,1.235c0.304,0.377,0.729,0.564,1.275,0.564
		s1.115-0.172,1.708-0.511c1.934,0,3.573,0.214,4.917,0.645c0.43-0.054,0.814-0.211,1.153-0.468
		c0.341-0.262,0.512-0.588,0.512-0.984c0-1.074-0.984-1.611-2.954-1.611l-2.284,0.081c-1.237,0-1.856-1.262-1.856-3.79l0.216-8.76
		v-1.101c0-0.752,0.106-1.38,0.322-1.883l-0.161-13.219l0.376-4.194c0-0.375-0.139-0.697-0.417-0.967
		c-0.278-0.271-0.604-0.403-0.98-0.403c-1.271,0-1.907,1.737-1.907,5.212c0,1.148,0.106,2.868,0.322,5.161v0.403
		C989.234,90.075,989.117,94.172,988.887,99.646z M999.741,136.008l-0.886,0.026l-7.471-0.509c-0.378,0-0.763,0.112-1.156,0.336
		c-0.394,0.225-0.591,0.507-0.591,0.846c0,1.038,1.486,1.584,4.459,1.64c0.073,0,0.144,0,0.216,0
		c0.036,1.737,0.273,6.512,0.714,14.321c0.438,7.813,0.729,11.951,0.871,12.417c-0.053,1.236-0.079,1.861-0.079,1.881l0.108,4.218
		l1.02,0.726c0.466,0,0.896-0.165,1.29-0.496c0.395-0.332,0.593-0.712,0.593-1.142c0-3.494-0.307-8.707-0.915-15.642
		c-0.61-6.932-0.914-12.137-0.914-15.612l0.109-0.564l2.525,0.378c0.466,0,0.887-0.139,1.262-0.418
		c0.378-0.277,0.565-0.642,0.565-1.088C1001.462,136.447,1000.888,136.008,999.741,136.008z M988.71,167.555
		c0.351,1.738,0.524,2.877,0.524,3.414v0.055c0,0.805-0.304,1.325-0.915,1.559c-0.769,0-1.369-0.126-1.8-0.377
		c-0.43-0.25-0.646-0.735-0.646-1.451c0-1.56-0.268-3.824-0.806-6.799l-5.428-0.807c-0.342,1.218-0.6,2.555-0.78,4.006
		c-0.177,1.449-0.349,2.507-0.51,3.17c-0.322,1.36-0.923,2.041-1.801,2.041c-0.429,0-0.828-0.137-1.195-0.416
		c-0.366-0.276-0.551-0.63-0.551-1.059l0.135-0.485c2.472-9.548,4.308-18.848,5.508-27.894c0.035-0.251,0.09-0.985,0.161-2.203
		c0.18-2.688,0.519-4.399,1.021-5.135h1.854c0.501,0,0.94,0.116,1.317,0.352c0.376,0.231,0.564,0.582,0.564,1.048
		c0,2.795,0.371,6.941,1.114,12.44c0.743,5.502,1.115,9.46,1.115,11.878l0.593,3.386C988.188,164.728,988.361,165.82,988.71,167.555
		z M984.719,161.993c-0.107-0.536-0.161-1.475-0.161-2.807c0-1.337-0.076-2.992-0.228-4.974c-0.153-1.977-0.372-4.28-0.66-6.904
		c-0.285-2.625-0.482-4.529-0.59-5.711c-1.665,9.225-2.741,15.729-3.225,19.508C980.481,161.52,982.104,161.815,984.719,161.993z
		 M1011.403,169.868l-4.058,0.134c-0.07,0-0.106-1.031-0.106-3.092l0.241-9.968c0-1.379-0.053-2.768-0.161-4.167h1.397
		c0.573,0.071,1.105,0.107,1.6,0.107c0.492,0,0.9-0.146,1.223-0.441s0.483-0.64,0.483-1.035c0-1.004-0.888-1.505-2.66-1.505
		l-1.962,0.081c-0.108-0.536-0.161-0.823-0.161-0.861l0.241-7.898c0-0.788-0.027-1.578-0.08-2.365
		c1.076,0.123,2.464,0.475,4.164,1.047c1.075-0.394,1.613-0.967,1.613-1.72c0-0.716-0.852-1.304-2.553-1.76
		c-1.702-0.459-3.045-0.685-4.03-0.685c-1.541,0-2.313,1.298-2.313,3.896l0.297,4.649l-0.376,16.068l0.35,9.297v1.454
		c0.017,0.466,0.224,0.864,0.619,1.193c0.392,0.332,0.831,0.499,1.315,0.499h4.648c0.609,0,1.156-0.126,1.64-0.377
		s0.726-0.653,0.726-1.207C1013.5,170.314,1012.801,169.868,1011.403,169.868z M1009.899,79.747c0.465,0,0.887-0.139,1.262-0.418
		c0.376-0.277,0.564-0.64,0.564-1.088c0-0.879-0.572-1.317-1.719-1.317l-0.886,0.028l-7.472-0.511c-0.377,0-0.762,0.112-1.157,0.337
		c-0.392,0.224-0.59,0.505-0.59,0.845c0,1.038,1.487,1.588,4.46,1.64c0.072,0,0.143,0,0.216,0c0.035,1.737,0.272,6.511,0.712,14.322
		s0.73,11.95,0.873,12.415c-0.053,1.237-0.08,1.865-0.08,1.882l0.108,4.221l1.02,0.723c0.466,0,0.896-0.165,1.291-0.497
		c0.393-0.331,0.592-0.71,0.592-1.141c0-3.494-0.306-8.707-0.914-15.641c-0.61-6.933-0.914-12.136-0.914-15.611l0.106-0.565
		L1009.899,79.747z M976.979,79.236h1.049c0.18,1.846,0.269,3.814,0.269,5.912l-0.296,12.253l0.376,11.688l-0.106,0.729h-1.56
		c-0.215,0.017-0.429,0.177-0.645,0.481c-0.215,0.306-0.322,0.628-0.322,0.967c0,0.825,0.654,1.236,1.962,1.236
		c0.161,0,0.385-0.017,0.671-0.052c0.468,0.071,1.533,0.106,3.199,0.106h2.416c0.486,0,0.91-0.164,1.279-0.497
		c0.366-0.331,0.55-0.729,0.55-1.197c0-0.911-0.753-1.37-2.258-1.37l-1.585,0.055h-0.727l0.027-1.532v-1.637l-0.268-11.692
		l0.297-10.507c0-1.897-0.073-3.6-0.216-5.105h2.82c0.412,0,0.78-0.141,1.103-0.431c0.322-0.285,0.483-0.599,0.483-0.94
		c0-0.768-0.745-1.155-2.231-1.155h-6.557c-1.809,0-2.713,0.424-2.713,1.264c0,0.572,0.151,0.964,0.457,1.169
		c0.304,0.205,0.725,0.308,1.262,0.308L976.979,79.236z M966.259,80.229v-0.645h0.644c1.183,0,2.141,0.179,2.876,0.536
		c1.862,0,2.795-0.517,2.795-1.555c0-0.97-1.039-1.605-3.117-1.91c-0.913-0.144-1.693-0.234-2.338-0.268
		c-0.626-0.035-1.213-0.055-1.761-0.055c-0.547,0-1.039,0.143-1.477,0.43c-0.439,0.286-0.66,0.69-0.66,1.21
		c0,2.311-0.07,4.8-0.214,7.469v1.344c-0.108,1.864-0.238,5.82-0.39,11.863c-0.153,6.048-0.382,10.71-0.686,13.987
		c0.735,0.556,1.389,0.835,1.962,0.835c0.95,0,1.424-0.807,1.424-2.421V95.468c0.68,0.214,1.339,0.322,1.976,0.322
		c0.635,0,1.151-0.148,1.545-0.444c0.394-0.295,0.591-0.686,0.591-1.17c0-0.967-0.886-1.451-2.661-1.451l-1.021,0.028v-1.479
		L966.259,80.229z M956.745,169.896l-2.284,0.077c-1.235,0-1.853-1.26-1.853-3.787l0.214-8.761v-1.103
		c0-0.749,0.108-1.377,0.322-1.881l-0.161-13.219l0.377-4.193c0-0.376-0.139-0.698-0.417-0.967
		c-0.278-0.271-0.604-0.404-0.981-0.404c-1.271,0-1.907,1.738-1.907,5.213c0,1.149,0.107,2.867,0.322,5.162v0.402
		c0,2.724-0.117,6.819-0.35,12.292c-0.232,5.474-0.35,9.573-0.35,12.296c0,0.446,0.153,0.859,0.457,1.236
		c0.305,0.374,0.73,0.564,1.276,0.564s1.115-0.173,1.708-0.513c1.934,0,3.573,0.216,4.916,0.645c0.43-0.052,0.816-0.209,1.155-0.47
		c0.341-0.258,0.511-0.586,0.511-0.98C959.701,170.432,958.717,169.896,956.745,169.896z"/>
</g>
</svg>
