<?xml version="1.0" encoding="utf-8"?>
<!-- Generator: Adobe Illustrator 18.0.0, SVG Export Plug-In . SVG Version: 6.00 Build 0)  -->
<!DOCTYPE svg PUBLIC "-//W3C//DTD SVG 1.1//EN" "http://www.w3.org/Graphics/SVG/1.1/DTD/svg11.dtd">
<svg version="1.1" id="Layer_1" xmlns="http://www.w3.org/2000/svg" xmlns:xlink="http://www.w3.org/1999/xlink" x="0px" y="0px"
	 viewBox="0 560 2560 321.3" enable-background="new 0 560 2560 321.3" xml:space="preserve">
<g>
	<g>
		<path fill="#E12A2A" d="M265,720.6c0,33.3-10.2,62.7-26.9,88.3c-21.8,33.3-56.3,57.6-96,66.6c-10.2,2.6-20.5,3.8-30.7,3.8
			c-1.3,0-110.1,0-110.1,0c0-38.4,32-70.4,70.4-70.4h38.4c47.4-1.3,84.5-39.7,84.5-88.3l0,0c0-48.6-39.7-88.3-88.3-88.3
			c-12.8,0-24.3,2.6-35.8,7.7v80.6C70.4,759,38.4,791,0,791V601.6c19.2-17.9,43.5-30.7,70.4-35.8c11.5-3.8,23-5.1,35.8-5.1
			c55,0,103.7,28.2,131.8,70.4C254.7,656.6,265,687.4,265,720.6L265,720.6z"/>
	</g>
</g>
<g>
	<g>
		<path fill="#E12A2A" d="M403.2,560.6L244.5,879.4h105c38.4,0,70.4-32,70.4-70.4H361l42.2-89.6l64,129.3
			c10.2,17.9,34.6,30.7,57.6,30.7h35.8L403.2,560.6z"/>
	</g>
</g>
<g>
	<g>
		<path fill="#E12A2A" d="M678.4,710.4l129.3-129.3c-28.2-28.2-71.7-28.2-99.8,0L631,657.9V631c0-38.4-32-70.4-70.4-70.4v247
			c0,38.4,30.7,70.4,70.4,70.4V762.9l94.7,94.7c26.9,28.2,71.7,28.2,99.8,0L678.4,710.4z"/>
	</g>
</g>
<g>
	<g>
		<path fill="#201F1F" d="M1007.4,684.8h-61.4c-14.1,0-26.9-11.5-26.9-26.9c0-14.1,11.5-26.9,26.9-26.9h61.4
			c38.4,0,70.4-32,70.4-70.4H945.9c-53.8,0-97.3,43.5-97.3,97.3s43.5,97.3,97.3,97.3h61.4c14.1,0,26.9,11.5,26.9,26.9
			c0,14.1-11.5,26.9-26.9,26.9H848.6c0,38.4,32,70.4,70.4,70.4h88.3c53.8,0,97.3-43.5,97.3-97.3S1061.1,684.8,1007.4,684.8z"/>
	</g>
</g>
<g>
	<g>
		<path fill="#201F1F" d="M1265.9,560.6h-131.8c0,38.4,32,70.4,70.4,70.4h61.4c14.1,0,26.9,11.5,26.9,26.9
			c0,14.1-11.5,26.9-26.9,26.9h-131.8V809c0,38.4,32,70.4,70.4,70.4V755.2c0,0,61.4,0,62.7,0c52.5,0,96-44.8,96-97.3
			C1363.2,605.4,1319.7,560.6,1265.9,560.6z"/>
	</g>
</g>
<path fill="#201F1F" d="M1546.2,560.6c-88.3,0-158.7,71.7-158.7,158.7c0,88.3,70.4,158.7,158.7,158.7c88.3,0,158.7-71.7,158.7-158.7
	S1634.6,560.6,1546.2,560.6z M1546.2,803.8c-46.1,0-83.2-37.1-83.2-83.2s37.1-83.2,83.2-83.2c46.1,0,83.2,37.1,83.2,83.2
	C1630.7,766.7,1592.3,803.8,1546.2,803.8z"/>
<g>
	<g>
		<path fill="#201F1F" d="M1894.4,752.6c39.7-11.5,70.4-49.9,70.4-93.4c0-53.8-43.5-97.3-97.3-97.3h-131.8c0,38.4,32,70.4,70.4,70.4
			h61.4c14.1,0,26.9,11.5,26.9,26.9c0,14.1-11.5,26.9-26.9,26.9h-131.8v124.2c0,38.4,32,70.4,70.4,70.4V765.4l94.7,94.7
			c26.9,28.2,71.7,28.2,99.8,0L1894.4,752.6z"/>
	</g>
</g>
<g>
	<g>
		<path fill="#201F1F" d="M2072.3,560.6c-38.4,0-70.4,32-70.4,70.4h106.2v247c38.4,0,70.4-32,70.4-70.4V632.3h35.8
			c38.4,0,70.4-32,70.4-70.4h-212.5V560.6z"/>
	</g>
</g>
<g>
	<g>
		<path fill="#201F1F" d="M2462.7,684.8h-61.4c-14.1,0-26.9-11.5-26.9-26.9c0-14.1,11.5-26.9,26.9-26.9h61.4
			c38.4,0,70.4-32,70.4-70.4h-131.8c-53.8,0-97.3,43.5-97.3,97.3s43.5,97.3,97.3,97.3h61.4c14.1,0,26.9,11.5,26.9,26.9
			c0,14.1-11.5,26.9-26.9,26.9H2304c0,38.4,32,70.4,70.4,70.4h88.3c53.8,0,97.3-43.5,97.3-97.3S2516.5,684.8,2462.7,684.8z"/>
	</g>
</g>
</svg>
