<?xml version="1.0" encoding="utf-8"?>
<!-- Generator: Adobe Illustrator 18.0.0, SVG Export Plug-In . SVG Version: 6.00 Build 0)  -->
<!DOCTYPE svg PUBLIC "-//W3C//DTD SVG 1.1//EN" "http://www.w3.org/Graphics/SVG/1.1/DTD/svg11.dtd">
<svg version="1.1" id="Layer_1" xmlns="http://www.w3.org/2000/svg" xmlns:xlink="http://www.w3.org/1999/xlink" x="0px" y="0px"
	 viewBox="0 0 140 19.6" enable-background="new 0 0 140 19.6" xml:space="preserve">
<path fill="#FFFFFF" d="M21.8,9.8c0,1.6-0.5,3-1.3,4.2c-1,1.6-2.7,2.7-4.6,3.2c-0.5,0.1-1,0.2-1.5,0.2c-0.1,0-5.2,0-5.2,0
	c0-1.8,1.5-3.4,3.3-3.4h1.8c2.2-0.1,4-1.9,4-4.2c0,0,0,0,0,0c0-2.3-1.9-4.2-4.2-4.2c-0.6,0-1.2,0.1-1.7,0.3v3.8
	c0,1.9-1.5,3.4-3.3,3.4v-9c0.9-0.8,2.1-1.4,3.3-1.7c0.5-0.1,1.1-0.2,1.7-0.2c2.6,0,4.9,1.3,6.3,3.3C21.3,6.8,21.8,8.2,21.8,9.8
	C21.8,9.8,21.8,9.8,21.8,9.8z M28.4,2.3l-7.5,15.1h5c1.8,0,3.3-1.5,3.3-3.4h-2.8l2-4.2l3.1,6.1c0.5,0.9,1.6,1.4,2.8,1.4h1.7
	L28.4,2.3z M41.5,9.4l6.1-6.1c-1.3-1.3-3.4-1.3-4.7,0l-3.6,3.6V5.6c0-1.8-1.5-3.4-3.3-3.4V14c0,1.8,1.5,3.4,3.3,3.4v-5.5l4.5,4.5
	c1.3,1.3,3.4,1.3,4.7,0L41.5,9.4z M57.1,8.1h-2.9c-0.7,0-1.3-0.6-1.3-1.3c0-0.7,0.6-1.3,1.3-1.3h2.9c1.8,0,3.3-1.5,3.3-3.4h-6.3
	c-2.6,0-4.6,2.1-4.6,4.6c0,2.6,2,4.6,4.6,4.6h2.9c0.7,0,1.3,0.6,1.3,1.3S57.8,14,57.1,14h-7.5c0,1.8,1.5,3.4,3.3,3.4h4.2
	c2.5,0,4.6-2.1,4.6-4.6C61.7,10.2,59.6,8.1,57.1,8.1z M69.3,2.3h-6.3c0,1.8,1.5,3.4,3.3,3.4h2.9c0.7,0,1.3,0.6,1.3,1.3
	c0,0.7-0.6,1.3-1.3,1.3h-6.3V14c0,1.8,1.5,3.4,3.3,3.4v-5.9c0,0,2.9,0,3,0c2.5,0,4.6-2.1,4.6-4.6C73.9,4.3,71.9,2.3,69.3,2.3z
	 M90.2,9.8c0,4.2-3.4,7.5-7.5,7.5c-4.2,0-7.5-3.4-7.5-7.5c0-4.2,3.4-7.5,7.5-7.5C86.8,2.3,90.2,5.6,90.2,9.8z M86.6,9.8
	c0-2.2-1.8-4-3.9-4c-2.2,0-3.9,1.8-3.9,4c0,2.2,1.8,4,3.9,4C84.8,13.8,86.6,12,86.6,9.8z M99.2,11.3c1.9-0.5,3.4-2.3,3.4-4.4
	c0-2.5-2.1-4.6-4.6-4.6h-6.3c0,1.8,1.5,3.4,3.3,3.4h2.9c0.7,0,1.3,0.6,1.3,1.3c0,0.7-0.6,1.3-1.3,1.3h-6.3V14c0,1.8,1.5,3.4,3.3,3.4
	v-5.5l4.5,4.5c1.3,1.3,3.4,1.3,4.7,0L99.2,11.3z M107.6,2.3c-1.8,0-3.3,1.5-3.3,3.4h5v11.7c1.8,0,3.3-1.5,3.3-3.4V5.6h1.7
	c1.8,0,3.3-1.5,3.3-3.4H107.6z M126.1,8.1h-2.9c-0.7,0-1.3-0.6-1.3-1.3c0-0.7,0.6-1.3,1.3-1.3h2.9c1.8,0,3.3-1.5,3.3-3.4h-6.3
	c-2.5,0-4.6,2.1-4.6,4.6c0,2.6,2,4.6,4.6,4.6h2.9c0.7,0,1.3,0.6,1.3,1.3s-0.6,1.3-1.3,1.3h-7.5c0,1.8,1.5,3.4,3.3,3.4h4.2
	c2.5,0,4.6-2.1,4.6-4.6C130.7,10.2,128.6,8.1,126.1,8.1z M140,9.8c0-5.4-4.4-9.8-9.8-9.8H9.8C4.4,0,0,4.4,0,9.8
	c0,5.4,4.4,9.8,9.8,9.8h120.3C135.6,19.6,140,15.2,140,9.8z M130.2,1.6c4.6,0,8.3,3.7,8.3,8.2s-3.7,8.2-8.3,8.2H9.8
	c-4.6,0-8.3-3.7-8.3-8.2s3.7-8.2,8.3-8.2H130.2z"/>
</svg>
